<svg xmlns="http://www.w3.org/2000/svg" width="1097.575" height="851.188" viewBox="0 0 1097.575 851.188"><g transform="translate(-346.425 -244)"><rect width="1018" height="780" transform="translate(426 244)" fill="#fff"/><rect width="404" height="308" transform="translate(1040 560)" fill="#0e47a1"/><rect width="199" height="308" transform="translate(1245 247)" fill="#073982"/><rect width="405" height="308" transform="translate(835 247)" fill="#1665c1"/><rect width="199" height="151" transform="translate(1245 873)" fill="#41a4f5"/><rect width="200" height="151" transform="translate(1040 873)" fill="#2196f3"/><rect width="200" height="308" transform="translate(835 716)" fill="#1d89e4"/><rect width="200" height="151" transform="translate(835 560)" fill="#1976d3"/><rect width="404" height="308" transform="translate(426 403)" fill="#85c4f9"/><rect width="404" height="308" transform="translate(426 716)" fill="#64aef5"/><rect width="404" height="151" transform="translate(426 247)" fill="#bbdefa"/><path d="M3.588-1.7h3.85V-13.913q0-.55.037-1.113l-3.2,2.738a.857.857,0,0,1-.25.144.719.719,0,0,1-.238.044.7.7,0,0,1-.337-.081.614.614,0,0,1-.225-.194l-.7-.962L7.85-17.95H9.663V-1.7h3.525V0h-9.6Z" transform="translate(519 1052)" fill="#3d3d3d"/><path d="M7.513-18.113a6.528,6.528,0,0,1,2.125.337,4.9,4.9,0,0,1,1.706.981,4.581,4.581,0,0,1,1.131,1.569,5.105,5.105,0,0,1,.412,2.1,5.522,5.522,0,0,1-.3,1.85,7.546,7.546,0,0,1-.813,1.631,11.981,11.981,0,0,1-1.181,1.512Q9.925-7.4,9.175-6.638L4.463-1.813a9.318,9.318,0,0,1,1.013-.219,6.308,6.308,0,0,1,.987-.081h6a.777.777,0,0,1,.575.213.744.744,0,0,1,.212.55V0H1.3V-.763a1.384,1.384,0,0,1,.094-.487A1.3,1.3,0,0,1,1.7-1.713L7.438-7.475q.712-.725,1.3-1.394a10.159,10.159,0,0,0,1.006-1.344,6.261,6.261,0,0,0,.644-1.369,4.773,4.773,0,0,0,.225-1.481,3.538,3.538,0,0,0-.25-1.381,2.672,2.672,0,0,0-.688-.981,2.892,2.892,0,0,0-1.025-.581A4.007,4.007,0,0,0,7.388-16.2a3.781,3.781,0,0,0-1.25.2,3.392,3.392,0,0,0-1.019.556,3.378,3.378,0,0,0-.75.844,3.29,3.29,0,0,0-.431,1.075,1,1,0,0,1-.3.525.807.807,0,0,1-.525.163q-.063,0-.131-.006t-.156-.019l-1.163-.2a6.589,6.589,0,0,1,.675-2.169,5.17,5.17,0,0,1,1.269-1.581,5.414,5.414,0,0,1,1.763-.969A6.739,6.739,0,0,1,7.513-18.113Z" transform="translate(724 1052)" fill="#3d3d3d"/><path d="M7.75-18.113a6.527,6.527,0,0,1,2.1.325,4.891,4.891,0,0,1,1.656.925,4.191,4.191,0,0,1,1.081,1.45,4.5,4.5,0,0,1,.387,1.887,4.877,4.877,0,0,1-.219,1.519,3.691,3.691,0,0,1-.625,1.175,3.737,3.737,0,0,1-.981.856,5.471,5.471,0,0,1-1.288.563,4.861,4.861,0,0,1,2.631,1.55,4.188,4.188,0,0,1,.881,2.725,5.125,5.125,0,0,1-.469,2.225,5,5,0,0,1-1.281,1.681A5.732,5.732,0,0,1,9.731-.169,7.136,7.136,0,0,1,7.413.2,7.375,7.375,0,0,1,4.975-.156a5.056,5.056,0,0,1-1.713-.981,5.224,5.224,0,0,1-1.15-1.481A11.093,11.093,0,0,1,1.35-4.475l.95-.4a1.323,1.323,0,0,1,.525-.113.908.908,0,0,1,.444.106.676.676,0,0,1,.294.331q.025.05.05.106t.05.119q.175.363.425.819a3.469,3.469,0,0,0,.675.856,3.651,3.651,0,0,0,1.056.675A3.934,3.934,0,0,0,7.388-1.7a4.1,4.1,0,0,0,1.644-.306A3.582,3.582,0,0,0,10.206-2.8a3.326,3.326,0,0,0,.706-1.088,3.209,3.209,0,0,0,.238-1.187A4.294,4.294,0,0,0,10.956-6.4a2.281,2.281,0,0,0-.7-1.038,3.6,3.6,0,0,0-1.4-.687,8.719,8.719,0,0,0-2.294-.25V-10a6.943,6.943,0,0,0,1.944-.238,3.789,3.789,0,0,0,1.319-.65,2.41,2.41,0,0,0,.744-.988A3.388,3.388,0,0,0,10.8-13.15a3.441,3.441,0,0,0-.244-1.35,2.594,2.594,0,0,0-.669-.95,2.8,2.8,0,0,0-1.006-.562A4.07,4.07,0,0,0,7.625-16.2a3.784,3.784,0,0,0-1.25.2,3.393,3.393,0,0,0-1.019.556,3.232,3.232,0,0,0-.744.849,3.975,3.975,0,0,0-.45,1.068,1,1,0,0,1-.3.524.787.787,0,0,1-.513.162q-.063,0-.131-.006t-.156-.018l-1.162-.2a6.589,6.589,0,0,1,.675-2.169,5.17,5.17,0,0,1,1.269-1.581,5.414,5.414,0,0,1,1.763-.969A6.739,6.739,0,0,1,7.75-18.113Z" transform="translate(928 1052)" fill="#3d3d3d"/><path d="M11.288-6.463H14v1.275a.5.5,0,0,1-.119.338.462.462,0,0,1-.369.138H11.288V0H9.325V-4.713H1.388a.673.673,0,0,1-.431-.144.63.63,0,0,1-.231-.356L.5-6.35,9.213-17.913h2.075ZM9.325-13.85q0-.325.019-.7a7.425,7.425,0,0,1,.081-.775L2.913-6.463H9.325Z" transform="translate(1133 1052)" fill="#3d3d3d"/><path d="M12.225-16.937a1.07,1.07,0,0,1-.3.781,1.381,1.381,0,0,1-1.013.306H5.287l-.825,4.7a12.41,12.41,0,0,1,2.588-.3,6.828,6.828,0,0,1,2.469.413A5.087,5.087,0,0,1,11.313-9.9a4.731,4.731,0,0,1,1.094,1.713,6.1,6.1,0,0,1,.369,2.15,6.394,6.394,0,0,1-.5,2.575,5.905,5.905,0,0,1-1.369,1.969A5.991,5.991,0,0,1,8.863-.238,7.215,7.215,0,0,1,6.325.2,7.161,7.161,0,0,1,4.813.044a7.632,7.632,0,0,1-1.35-.419A8.025,8.025,0,0,1,2.3-.975a6.721,6.721,0,0,1-.95-.713l.675-.95a.7.7,0,0,1,.6-.325,1.115,1.115,0,0,1,.556.194q.319.194.769.431a6.529,6.529,0,0,0,1.056.431,4.767,4.767,0,0,0,1.444.194,4.51,4.51,0,0,0,1.688-.3,3.59,3.59,0,0,0,1.281-.856A3.829,3.829,0,0,0,10.238-4.2a4.967,4.967,0,0,0,.287-1.738,4.43,4.43,0,0,0-.244-1.512A2.97,2.97,0,0,0,9.544-8.6a3.383,3.383,0,0,0-1.231-.738A5.143,5.143,0,0,0,6.588-9.6a9.131,9.131,0,0,0-1.4.112,9.776,9.776,0,0,0-1.5.363l-1.4-.413,1.45-8.375h8.488Z" transform="translate(1338 1052)" fill="#3d3d3d"/><path d="M5.3-7.062V0H1.938V-18.075H7.45a11.514,11.514,0,0,1,3.169.381,6.038,6.038,0,0,1,2.162,1.069,4.126,4.126,0,0,1,1.238,1.644,5.48,5.48,0,0,1,.394,2.106,5.458,5.458,0,0,1-.269,1.725,4.992,4.992,0,0,1-.775,1.475,5.223,5.223,0,0,1-1.25,1.162,6.553,6.553,0,0,1-1.694.8,3.331,3.331,0,0,1,1.1,1.037L16.05,0H13.025a1.477,1.477,0,0,1-.744-.175,1.52,1.52,0,0,1-.519-.5l-3.8-5.788a1.334,1.334,0,0,0-.469-.463,1.642,1.642,0,0,0-.756-.137Zm0-2.413H7.4a5.2,5.2,0,0,0,1.656-.238,3.2,3.2,0,0,0,1.163-.656,2.636,2.636,0,0,0,.681-.994,3.436,3.436,0,0,0,.225-1.262,2.567,2.567,0,0,0-.906-2.113,4.335,4.335,0,0,0-2.769-.738H5.3Zm18.025-3.55a6.227,6.227,0,0,1,2.231.387,4.886,4.886,0,0,1,1.756,1.131,5.168,5.168,0,0,1,1.15,1.825,6.892,6.892,0,0,1,.412,2.469,4.467,4.467,0,0,1-.031.581.93.93,0,0,1-.112.363.455.455,0,0,1-.219.188.932.932,0,0,1-.35.056H20.237a4.416,4.416,0,0,0,1.063,2.9,3.312,3.312,0,0,0,2.45.925,4.243,4.243,0,0,0,1.294-.175,6.066,6.066,0,0,0,.95-.388q.406-.212.712-.387a1.2,1.2,0,0,1,.594-.175.669.669,0,0,1,.325.075.718.718,0,0,1,.237.213l.9,1.125a5.146,5.146,0,0,1-1.15,1.006,6.45,6.45,0,0,1-1.331.65,7.276,7.276,0,0,1-1.412.344,10.114,10.114,0,0,1-1.394.1,6.851,6.851,0,0,1-2.488-.444,5.568,5.568,0,0,1-2-1.313,6.158,6.158,0,0,1-1.337-2.15,8.32,8.32,0,0,1-.487-2.969,7.1,7.1,0,0,1,.425-2.469,5.936,5.936,0,0,1,1.219-2.013,5.738,5.738,0,0,1,1.938-1.356A6.382,6.382,0,0,1,23.325-13.025Zm.063,2.212a2.855,2.855,0,0,0-2.113.763A3.761,3.761,0,0,0,20.3-7.888h5.8a3.847,3.847,0,0,0-.163-1.131,2.609,2.609,0,0,0-.5-.931,2.366,2.366,0,0,0-.85-.631A2.9,2.9,0,0,0,23.388-10.813Zm17.013.7a1.539,1.539,0,0,1-.269.275.621.621,0,0,1-.381.1.849.849,0,0,1-.463-.144q-.225-.144-.537-.325a4.018,4.018,0,0,0-.744-.325,3.417,3.417,0,0,0-1.069-.144,3.26,3.26,0,0,0-1.425.294,2.7,2.7,0,0,0-1.019.844,3.8,3.8,0,0,0-.606,1.331,7.148,7.148,0,0,0-.2,1.769,6.935,6.935,0,0,0,.219,1.825,3.9,3.9,0,0,0,.631,1.344,2.716,2.716,0,0,0,1,.825,3.03,3.03,0,0,0,1.325.281,3.285,3.285,0,0,0,1.194-.181,3.767,3.767,0,0,0,.769-.4q.312-.219.544-.4a.82.82,0,0,1,.519-.181.627.627,0,0,1,.563.287l.888,1.125A5.582,5.582,0,0,1,40.225-.906a6.013,6.013,0,0,1-1.244.65A6.315,6.315,0,0,1,37.65.088a9.456,9.456,0,0,1-1.363.1A5.688,5.688,0,0,1,34.05-.256,5.224,5.224,0,0,1,32.219-1.55a6.235,6.235,0,0,1-1.238-2.081,8.041,8.041,0,0,1-.456-2.806,8.157,8.157,0,0,1,.406-2.619,5.933,5.933,0,0,1,1.194-2.088,5.473,5.473,0,0,1,1.95-1.381,6.718,6.718,0,0,1,2.675-.5,6.363,6.363,0,0,1,2.519.463,6.154,6.154,0,0,1,1.944,1.325Zm8.212-2.913a6.227,6.227,0,0,1,2.231.387A4.886,4.886,0,0,1,52.6-11.506a5.168,5.168,0,0,1,1.15,1.825,6.892,6.892,0,0,1,.412,2.469,4.468,4.468,0,0,1-.031.581.93.93,0,0,1-.112.363.455.455,0,0,1-.219.188.932.932,0,0,1-.35.056H45.525a4.416,4.416,0,0,0,1.063,2.9,3.312,3.312,0,0,0,2.45.925,4.243,4.243,0,0,0,1.294-.175,6.066,6.066,0,0,0,.95-.388q.406-.212.713-.387a1.2,1.2,0,0,1,.594-.175.669.669,0,0,1,.325.075.718.718,0,0,1,.237.213l.9,1.125A5.146,5.146,0,0,1,52.9-.906a6.45,6.45,0,0,1-1.331.65,7.276,7.276,0,0,1-1.412.344,10.114,10.114,0,0,1-1.394.1,6.851,6.851,0,0,1-2.487-.444,5.568,5.568,0,0,1-2-1.313,6.158,6.158,0,0,1-1.337-2.15,8.32,8.32,0,0,1-.488-2.969,7.1,7.1,0,0,1,.425-2.469,5.936,5.936,0,0,1,1.219-2.013,5.738,5.738,0,0,1,1.938-1.356A6.382,6.382,0,0,1,48.612-13.025Zm.063,2.212a2.855,2.855,0,0,0-2.112.763,3.761,3.761,0,0,0-.975,2.162h5.8a3.847,3.847,0,0,0-.162-1.131,2.609,2.609,0,0,0-.5-.931,2.366,2.366,0,0,0-.85-.631A2.9,2.9,0,0,0,48.675-10.813ZM56.675,0V-12.825h1.888a.759.759,0,0,1,.787.563l.212,1.013a7.033,7.033,0,0,1,.819-.725,5.717,5.717,0,0,1,.912-.562,4.649,4.649,0,0,1,1.031-.363,5.414,5.414,0,0,1,1.2-.125,4.6,4.6,0,0,1,1.862.356,3.68,3.68,0,0,1,1.356,1,4.4,4.4,0,0,1,.825,1.538,6.534,6.534,0,0,1,.281,1.969V0H64.762V-8.163a2.739,2.739,0,0,0-.544-1.819,2.016,2.016,0,0,0-1.631-.644,3.215,3.215,0,0,0-1.5.362,5.376,5.376,0,0,0-1.325.988V0ZM79.9-10.113a1.539,1.539,0,0,1-.269.275.621.621,0,0,1-.381.1.849.849,0,0,1-.463-.144q-.225-.144-.538-.325a4.018,4.018,0,0,0-.744-.325,3.417,3.417,0,0,0-1.069-.144,3.26,3.26,0,0,0-1.425.294,2.7,2.7,0,0,0-1.019.844,3.8,3.8,0,0,0-.606,1.331,7.148,7.148,0,0,0-.2,1.769,6.934,6.934,0,0,0,.219,1.825,3.9,3.9,0,0,0,.631,1.344,2.716,2.716,0,0,0,1,.825,3.03,3.03,0,0,0,1.325.281,3.285,3.285,0,0,0,1.194-.181,3.767,3.767,0,0,0,.769-.4q.313-.219.544-.4a.82.82,0,0,1,.519-.181.627.627,0,0,1,.563.287l.887,1.125A5.582,5.582,0,0,1,79.725-.906a6.014,6.014,0,0,1-1.244.65A6.315,6.315,0,0,1,77.15.088a9.456,9.456,0,0,1-1.362.1A5.688,5.688,0,0,1,73.55-.256,5.224,5.224,0,0,1,71.719-1.55a6.234,6.234,0,0,1-1.237-2.081,8.041,8.041,0,0,1-.456-2.806,8.157,8.157,0,0,1,.406-2.619,5.933,5.933,0,0,1,1.194-2.088,5.473,5.473,0,0,1,1.95-1.381,6.718,6.718,0,0,1,2.675-.5,6.363,6.363,0,0,1,2.519.463,6.154,6.154,0,0,1,1.944,1.325ZM87.362,3.525a1.193,1.193,0,0,1-.356.494,1.09,1.09,0,0,1-.669.169h-2.3l2.4-5.138L81.25-12.825h2.7a.847.847,0,0,1,.575.175,1.15,1.15,0,0,1,.3.4L87.563-5.6a5.867,5.867,0,0,1,.237.675q.1.35.175.7.1-.363.219-.7t.256-.687l2.575-6.637a.91.91,0,0,1,.331-.413.881.881,0,0,1,.519-.163H94.35Z" transform="translate(897 1091)" fill="#3d3d3d"/><path d="M3.588-1.7h3.85V-13.913q0-.55.037-1.113l-3.2,2.738a.857.857,0,0,1-.25.144.719.719,0,0,1-.238.044.7.7,0,0,1-.337-.081.614.614,0,0,1-.225-.194l-.7-.962L7.85-17.95H9.663V-1.7h3.525V0h-9.6Z" transform="translate(401 959)" fill="#3d3d3d"/><path d="M7.513-18.113a6.528,6.528,0,0,1,2.125.337,4.9,4.9,0,0,1,1.706.981,4.581,4.581,0,0,1,1.131,1.569,5.105,5.105,0,0,1,.412,2.1,5.522,5.522,0,0,1-.3,1.85,7.546,7.546,0,0,1-.813,1.631,11.981,11.981,0,0,1-1.181,1.512Q9.925-7.4,9.175-6.638L4.463-1.813a9.318,9.318,0,0,1,1.013-.219,6.308,6.308,0,0,1,.987-.081h6a.777.777,0,0,1,.575.213.744.744,0,0,1,.212.55V0H1.3V-.763a1.384,1.384,0,0,1,.094-.487A1.3,1.3,0,0,1,1.7-1.713L7.438-7.475q.712-.725,1.3-1.394a10.159,10.159,0,0,0,1.006-1.344,6.261,6.261,0,0,0,.644-1.369,4.773,4.773,0,0,0,.225-1.481,3.538,3.538,0,0,0-.25-1.381,2.672,2.672,0,0,0-.688-.981,2.892,2.892,0,0,0-1.025-.581A4.007,4.007,0,0,0,7.388-16.2a3.781,3.781,0,0,0-1.25.2,3.392,3.392,0,0,0-1.019.556,3.378,3.378,0,0,0-.75.844,3.29,3.29,0,0,0-.431,1.075,1,1,0,0,1-.3.525.807.807,0,0,1-.525.163q-.063,0-.131-.006t-.156-.019l-1.163-.2a6.589,6.589,0,0,1,.675-2.169,5.17,5.17,0,0,1,1.269-1.581,5.414,5.414,0,0,1,1.763-.969A6.739,6.739,0,0,1,7.513-18.113Z" transform="translate(401 803)" fill="#3d3d3d"/><path d="M7.75-18.113a6.527,6.527,0,0,1,2.1.325,4.891,4.891,0,0,1,1.656.925,4.191,4.191,0,0,1,1.081,1.45,4.5,4.5,0,0,1,.387,1.887,4.877,4.877,0,0,1-.219,1.519,3.691,3.691,0,0,1-.625,1.175,3.737,3.737,0,0,1-.981.856,5.471,5.471,0,0,1-1.288.563,4.861,4.861,0,0,1,2.631,1.55,4.188,4.188,0,0,1,.881,2.725,5.125,5.125,0,0,1-.469,2.225,5,5,0,0,1-1.281,1.681A5.732,5.732,0,0,1,9.731-.169,7.136,7.136,0,0,1,7.413.2,7.375,7.375,0,0,1,4.975-.156a5.056,5.056,0,0,1-1.713-.981,5.224,5.224,0,0,1-1.15-1.481A11.093,11.093,0,0,1,1.35-4.475l.95-.4a1.323,1.323,0,0,1,.525-.113.908.908,0,0,1,.444.106.676.676,0,0,1,.294.331q.025.05.05.106t.05.119q.175.363.425.819a3.469,3.469,0,0,0,.675.856,3.651,3.651,0,0,0,1.056.675A3.934,3.934,0,0,0,7.388-1.7a4.1,4.1,0,0,0,1.644-.306A3.582,3.582,0,0,0,10.206-2.8a3.326,3.326,0,0,0,.706-1.088,3.209,3.209,0,0,0,.238-1.187A4.294,4.294,0,0,0,10.956-6.4a2.281,2.281,0,0,0-.7-1.038,3.6,3.6,0,0,0-1.4-.687,8.719,8.719,0,0,0-2.294-.25V-10a6.943,6.943,0,0,0,1.944-.238,3.789,3.789,0,0,0,1.319-.65,2.41,2.41,0,0,0,.744-.988A3.388,3.388,0,0,0,10.8-13.15a3.441,3.441,0,0,0-.244-1.35,2.594,2.594,0,0,0-.669-.95,2.8,2.8,0,0,0-1.006-.562A4.07,4.07,0,0,0,7.625-16.2a3.784,3.784,0,0,0-1.25.2,3.393,3.393,0,0,0-1.019.556,3.232,3.232,0,0,0-.744.849,3.975,3.975,0,0,0-.45,1.068,1,1,0,0,1-.3.524.787.787,0,0,1-.513.162q-.063,0-.131-.006t-.156-.018l-1.162-.2a6.589,6.589,0,0,1,.675-2.169,5.17,5.17,0,0,1,1.269-1.581,5.414,5.414,0,0,1,1.763-.969A6.739,6.739,0,0,1,7.75-18.113Z" transform="translate(401 646)" fill="#3d3d3d"/><path d="M11.288-6.463H14v1.275a.5.5,0,0,1-.119.338.462.462,0,0,1-.369.138H11.288V0H9.325V-4.713H1.388a.673.673,0,0,1-.431-.144.63.63,0,0,1-.231-.356L.5-6.35,9.213-17.913h2.075ZM9.325-13.85q0-.325.019-.7a7.425,7.425,0,0,1,.081-.775L2.913-6.463H9.325Z" transform="translate(401 490)" fill="#3d3d3d"/><path d="M12.225-16.937a1.07,1.07,0,0,1-.3.781,1.381,1.381,0,0,1-1.013.306H5.287l-.825,4.7a12.41,12.41,0,0,1,2.588-.3,6.828,6.828,0,0,1,2.469.413A5.087,5.087,0,0,1,11.313-9.9a4.731,4.731,0,0,1,1.094,1.713,6.1,6.1,0,0,1,.369,2.15,6.394,6.394,0,0,1-.5,2.575,5.905,5.905,0,0,1-1.369,1.969A5.991,5.991,0,0,1,8.863-.238,7.215,7.215,0,0,1,6.325.2,7.161,7.161,0,0,1,4.813.044a7.632,7.632,0,0,1-1.35-.419A8.025,8.025,0,0,1,2.3-.975a6.721,6.721,0,0,1-.95-.713l.675-.95a.7.7,0,0,1,.6-.325,1.115,1.115,0,0,1,.556.194q.319.194.769.431a6.529,6.529,0,0,0,1.056.431,4.767,4.767,0,0,0,1.444.194,4.51,4.51,0,0,0,1.688-.3,3.59,3.59,0,0,0,1.281-.856A3.829,3.829,0,0,0,10.238-4.2a4.967,4.967,0,0,0,.287-1.738,4.43,4.43,0,0,0-.244-1.512A2.97,2.97,0,0,0,9.544-8.6a3.383,3.383,0,0,0-1.231-.738A5.143,5.143,0,0,0,6.588-9.6a9.131,9.131,0,0,0-1.4.112,9.776,9.776,0,0,0-1.5.363l-1.4-.413,1.45-8.375h8.488Z" transform="translate(401 334)" fill="#3d3d3d"/><path d="M13.225-18.075V-15.4H5.213v5.35h6.763v2.687H5.213V0H1.825V-18.075ZM14.938,0V-12.825H16.75a.972.972,0,0,1,.663.175,1.006,1.006,0,0,1,.25.6l.188,1.55a6.093,6.093,0,0,1,1.613-1.875,3.393,3.393,0,0,1,2.075-.687,2.682,2.682,0,0,1,1.575.438l-.4,2.312a.477.477,0,0,1-.163.319.55.55,0,0,1-.337.094,2.105,2.105,0,0,1-.513-.087,3.43,3.43,0,0,0-.862-.088,2.618,2.618,0,0,0-1.65.531,4.09,4.09,0,0,0-1.162,1.556V0ZM30.45-13.025a6.227,6.227,0,0,1,2.231.387,4.886,4.886,0,0,1,1.756,1.131,5.168,5.168,0,0,1,1.15,1.825A6.892,6.892,0,0,1,36-7.213a4.468,4.468,0,0,1-.031.581.93.93,0,0,1-.112.363.455.455,0,0,1-.219.188.932.932,0,0,1-.35.056H27.362a4.416,4.416,0,0,0,1.063,2.9,3.312,3.312,0,0,0,2.45.925,4.243,4.243,0,0,0,1.294-.175,6.066,6.066,0,0,0,.95-.388q.406-.212.713-.387a1.2,1.2,0,0,1,.594-.175.669.669,0,0,1,.325.075.718.718,0,0,1,.237.213l.9,1.125a5.146,5.146,0,0,1-1.15,1.006,6.45,6.45,0,0,1-1.331.65,7.276,7.276,0,0,1-1.412.344,10.114,10.114,0,0,1-1.394.1,6.851,6.851,0,0,1-2.488-.444,5.568,5.568,0,0,1-2-1.313,6.158,6.158,0,0,1-1.337-2.15,8.32,8.32,0,0,1-.487-2.969,7.1,7.1,0,0,1,.425-2.469,5.936,5.936,0,0,1,1.219-2.013,5.738,5.738,0,0,1,1.938-1.356A6.382,6.382,0,0,1,30.45-13.025Zm.063,2.212a2.855,2.855,0,0,0-2.113.763,3.761,3.761,0,0,0-.975,2.162h5.8a3.847,3.847,0,0,0-.162-1.131,2.609,2.609,0,0,0-.5-.931,2.366,2.366,0,0,0-.85-.631A2.9,2.9,0,0,0,30.513-10.813Zm18.912-2.012V4.188H46.338v-5.8a6.842,6.842,0,0,1-.819.744,5.075,5.075,0,0,1-.919.563,5.264,5.264,0,0,1-1.037.363,5.108,5.108,0,0,1-1.187.131A4.243,4.243,0,0,1,40.45-.25a4.289,4.289,0,0,1-1.506-1.269,6.081,6.081,0,0,1-.975-2.056,10.384,10.384,0,0,1-.344-2.8,8.743,8.743,0,0,1,.388-2.65,6.448,6.448,0,0,1,1.112-2.125,5.191,5.191,0,0,1,1.737-1.406,5.017,5.017,0,0,1,2.275-.506,5.209,5.209,0,0,1,1.094.106,4.121,4.121,0,0,1,.912.306,4.1,4.1,0,0,1,.769.475,5.883,5.883,0,0,1,.675.625l.162-.713a.643.643,0,0,1,.275-.425.923.923,0,0,1,.512-.137Zm-6,10.563a3.158,3.158,0,0,0,1.638-.4A4.863,4.863,0,0,0,46.338-3.8V-9.55a3.038,3.038,0,0,0-1.144-.9,3.373,3.373,0,0,0-1.331-.262,2.992,2.992,0,0,0-1.269.262,2.481,2.481,0,0,0-.963.794,3.888,3.888,0,0,0-.606,1.35,7.75,7.75,0,0,0-.212,1.931,8.573,8.573,0,0,0,.181,1.906,3.754,3.754,0,0,0,.519,1.275,1.977,1.977,0,0,0,.825.713A2.627,2.627,0,0,0,43.425-2.263ZM55.587-12.825v8.15a2.739,2.739,0,0,0,.544,1.819,2.016,2.016,0,0,0,1.631.644,3.261,3.261,0,0,0,1.5-.356,5.244,5.244,0,0,0,1.325-.981v-9.275h3.087V0H61.787A.759.759,0,0,1,61-.562l-.213-1.025a8.939,8.939,0,0,1-.825.731,4.977,4.977,0,0,1-.906.563,5.082,5.082,0,0,1-1.038.363A5.189,5.189,0,0,1,56.825.2a4.553,4.553,0,0,1-1.856-.356,3.718,3.718,0,0,1-1.356-1.006,4.406,4.406,0,0,1-.831-1.544A6.534,6.534,0,0,1,52.5-4.675v-8.15Zm16.687-.2a6.227,6.227,0,0,1,2.231.387,4.886,4.886,0,0,1,1.756,1.131,5.168,5.168,0,0,1,1.15,1.825,6.892,6.892,0,0,1,.412,2.469,4.467,4.467,0,0,1-.031.581.93.93,0,0,1-.113.363.455.455,0,0,1-.219.188.932.932,0,0,1-.35.056H69.188a4.416,4.416,0,0,0,1.063,2.9A3.312,3.312,0,0,0,72.7-2.2a4.243,4.243,0,0,0,1.294-.175,6.066,6.066,0,0,0,.95-.388q.406-.212.713-.387a1.2,1.2,0,0,1,.594-.175.669.669,0,0,1,.325.075.718.718,0,0,1,.238.213l.9,1.125a5.146,5.146,0,0,1-1.15,1.006,6.45,6.45,0,0,1-1.331.65,7.276,7.276,0,0,1-1.412.344,10.114,10.114,0,0,1-1.394.1,6.851,6.851,0,0,1-2.487-.444,5.568,5.568,0,0,1-2-1.313A6.158,6.158,0,0,1,66.6-3.719a8.32,8.32,0,0,1-.488-2.969,7.1,7.1,0,0,1,.425-2.469,5.936,5.936,0,0,1,1.219-2.013,5.738,5.738,0,0,1,1.938-1.356A6.382,6.382,0,0,1,72.275-13.025Zm.063,2.212a2.855,2.855,0,0,0-2.112.763,3.761,3.761,0,0,0-.975,2.162h5.8a3.847,3.847,0,0,0-.162-1.131,2.609,2.609,0,0,0-.5-.931,2.366,2.366,0,0,0-.85-.631A2.9,2.9,0,0,0,72.337-10.813ZM80.338,0V-12.825h1.887a.759.759,0,0,1,.787.563l.213,1.013a7.033,7.033,0,0,1,.819-.725,5.716,5.716,0,0,1,.913-.562,4.649,4.649,0,0,1,1.031-.363,5.414,5.414,0,0,1,1.2-.125,4.6,4.6,0,0,1,1.863.356,3.68,3.68,0,0,1,1.356,1,4.4,4.4,0,0,1,.825,1.538,6.534,6.534,0,0,1,.281,1.969V0H88.425V-8.163a2.739,2.739,0,0,0-.544-1.819,2.015,2.015,0,0,0-1.631-.644,3.215,3.215,0,0,0-1.5.362,5.376,5.376,0,0,0-1.325.988V0Zm23.225-10.113a1.539,1.539,0,0,1-.269.275.621.621,0,0,1-.381.1.849.849,0,0,1-.463-.144q-.225-.144-.538-.325a4.018,4.018,0,0,0-.744-.325,3.417,3.417,0,0,0-1.069-.144,3.26,3.26,0,0,0-1.425.294,2.7,2.7,0,0,0-1.019.844,3.8,3.8,0,0,0-.606,1.331,7.148,7.148,0,0,0-.2,1.769,6.934,6.934,0,0,0,.219,1.825A3.9,3.9,0,0,0,97.7-3.269a2.716,2.716,0,0,0,1,.825,3.03,3.03,0,0,0,1.325.281,3.285,3.285,0,0,0,1.194-.181,3.767,3.767,0,0,0,.769-.4q.313-.219.544-.4a.82.82,0,0,1,.519-.181.627.627,0,0,1,.563.287l.887,1.125a5.582,5.582,0,0,1-1.112,1.006,6.014,6.014,0,0,1-1.244.65,6.315,6.315,0,0,1-1.331.344,9.456,9.456,0,0,1-1.362.1,5.688,5.688,0,0,1-2.238-.444A5.224,5.224,0,0,1,95.381-1.55a6.234,6.234,0,0,1-1.237-2.081,8.041,8.041,0,0,1-.456-2.806,8.157,8.157,0,0,1,.406-2.619,5.933,5.933,0,0,1,1.194-2.088,5.473,5.473,0,0,1,1.95-1.381,6.718,6.718,0,0,1,2.675-.5,6.363,6.363,0,0,1,2.519.463,6.154,6.154,0,0,1,1.944,1.325Zm7.463,13.638a1.193,1.193,0,0,1-.356.494,1.09,1.09,0,0,1-.669.169h-2.3L110.1-.95l-5.187-11.875h2.7a.847.847,0,0,1,.575.175,1.15,1.15,0,0,1,.3.4l2.738,6.65a5.867,5.867,0,0,1,.237.675q.1.35.175.7.1-.363.219-.7t.256-.687l2.575-6.637a.91.91,0,0,1,.331-.413.881.881,0,0,1,.519-.163h2.475ZM125.713.038a1.826,1.826,0,0,1-.287.5,1.706,1.706,0,0,1-.4.356,1.885,1.885,0,0,1-.475.219,1.692,1.692,0,0,1-.488.075h-1.3l7.3-18.675a1.762,1.762,0,0,1,.613-.806,1.63,1.63,0,0,1,.962-.281h1.313ZM148.387-7.5q.213.4.394.831t.356.869q.175-.45.363-.888t.4-.838l5.35-10.013a1.388,1.388,0,0,1,.206-.3.638.638,0,0,1,.238-.162,1.048,1.048,0,0,1,.294-.062q.163-.012.387-.013h2.538V0H155.95V-11.675q0-.325.019-.713t.056-.787l-5.463,10.25a1.44,1.44,0,0,1-.487.544,1.262,1.262,0,0,1-.7.194h-.462a1.262,1.262,0,0,1-.7-.194,1.44,1.44,0,0,1-.488-.544l-5.538-10.288q.05.412.069.806t.019.731V0h-2.963V-18.075h2.538q.225,0,.387.013a1.048,1.048,0,0,1,.294.063.7.7,0,0,1,.244.162,1.262,1.262,0,0,1,.212.3Zm19.475-5.525a7.028,7.028,0,0,1,2.606.463,5.62,5.62,0,0,1,1.994,1.313,5.81,5.81,0,0,1,1.275,2.075,7.893,7.893,0,0,1,.45,2.737,7.932,7.932,0,0,1-.45,2.75A5.938,5.938,0,0,1,172.463-1.6a5.539,5.539,0,0,1-1.994,1.325,7.028,7.028,0,0,1-2.606.463,7.077,7.077,0,0,1-2.613-.463A5.588,5.588,0,0,1,163.244-1.6a5.964,5.964,0,0,1-1.288-2.088,7.833,7.833,0,0,1-.456-2.75,7.8,7.8,0,0,1,.456-2.737,5.835,5.835,0,0,1,1.288-2.075,5.67,5.67,0,0,1,2.006-1.312A7.077,7.077,0,0,1,167.863-13.025Zm0,10.838a2.716,2.716,0,0,0,2.369-1.075A5.39,5.39,0,0,0,171-6.413a5.452,5.452,0,0,0-.769-3.163,2.7,2.7,0,0,0-2.369-1.087,2.741,2.741,0,0,0-2.4,1.094,5.423,5.423,0,0,0-.775,3.156,5.361,5.361,0,0,0,.775,3.144A2.753,2.753,0,0,0,167.863-2.188ZM176.6,0V-12.825h1.888a.759.759,0,0,1,.787.563l.213,1.013a7.033,7.033,0,0,1,.819-.725,5.717,5.717,0,0,1,.913-.562,4.649,4.649,0,0,1,1.031-.363,5.414,5.414,0,0,1,1.2-.125,4.6,4.6,0,0,1,1.863.356,3.68,3.68,0,0,1,1.356,1,4.4,4.4,0,0,1,.825,1.538,6.534,6.534,0,0,1,.281,1.969V0h-3.087V-8.163a2.739,2.739,0,0,0-.544-1.819,2.016,2.016,0,0,0-1.631-.644,3.215,3.215,0,0,0-1.5.362,5.376,5.376,0,0,0-1.325.988V0Zm19.512-13.025a6.227,6.227,0,0,1,2.231.387,4.886,4.886,0,0,1,1.756,1.131,5.168,5.168,0,0,1,1.15,1.825,6.892,6.892,0,0,1,.413,2.469,4.468,4.468,0,0,1-.031.581.93.93,0,0,1-.113.363.455.455,0,0,1-.219.188.932.932,0,0,1-.35.056h-7.925a4.416,4.416,0,0,0,1.063,2.9,3.312,3.312,0,0,0,2.45.925,4.243,4.243,0,0,0,1.294-.175,6.066,6.066,0,0,0,.95-.388q.406-.212.713-.387a1.2,1.2,0,0,1,.594-.175.669.669,0,0,1,.325.075.718.718,0,0,1,.238.213l.9,1.125A5.146,5.146,0,0,1,200.4-.906a6.449,6.449,0,0,1-1.331.65,7.276,7.276,0,0,1-1.413.344,10.114,10.114,0,0,1-1.394.1,6.851,6.851,0,0,1-2.488-.444,5.568,5.568,0,0,1-2-1.313,6.158,6.158,0,0,1-1.338-2.15,8.32,8.32,0,0,1-.487-2.969,7.1,7.1,0,0,1,.425-2.469,5.937,5.937,0,0,1,1.219-2.013,5.738,5.738,0,0,1,1.938-1.356A6.382,6.382,0,0,1,196.112-13.025Zm.063,2.212a2.855,2.855,0,0,0-2.113.763,3.761,3.761,0,0,0-.975,2.162h5.8a3.847,3.847,0,0,0-.163-1.131,2.61,2.61,0,0,0-.5-.931,2.366,2.366,0,0,0-.85-.631A2.9,2.9,0,0,0,196.175-10.813ZM208.387.2a3.373,3.373,0,0,1-2.562-.944,3.622,3.622,0,0,1-.9-2.606v-7.162h-1.3a.624.624,0,0,1-.431-.163.621.621,0,0,1-.181-.488v-1.225l2.063-.337.65-3.5a.618.618,0,0,1,.231-.388.733.733,0,0,1,.456-.137h1.6v4.037h3.375v2.2h-3.375v6.95a1.362,1.362,0,0,0,.3.938,1.018,1.018,0,0,0,.8.337,1.453,1.453,0,0,0,.481-.069,2.649,2.649,0,0,0,.337-.144q.144-.075.256-.144a.428.428,0,0,1,.225-.069.353.353,0,0,1,.225.069,1.043,1.043,0,0,1,.188.206l.925,1.5a4.674,4.674,0,0,1-1.55.85A5.769,5.769,0,0,1,208.387.2ZM223.9,0h-1.387a1.494,1.494,0,0,1-.687-.131.845.845,0,0,1-.375-.531l-.275-.913a10.589,10.589,0,0,1-.956.769,5.806,5.806,0,0,1-.969.556,4.941,4.941,0,0,1-1.062.338,6.392,6.392,0,0,1-1.25.112,4.91,4.91,0,0,1-1.5-.219,3.231,3.231,0,0,1-1.181-.658,2.99,2.99,0,0,1-.769-1.091,3.882,3.882,0,0,1-.275-1.517,3,3,0,0,1,.381-1.436A3.594,3.594,0,0,1,214.863-6a8.1,8.1,0,0,1,2.362-.947,15.09,15.09,0,0,1,3.663-.376v-.756A2.866,2.866,0,0,0,220.344-10a1.985,1.985,0,0,0-1.581-.623,3.827,3.827,0,0,0-1.25.175,4.836,4.836,0,0,0-.869.394q-.369.219-.681.394a1.383,1.383,0,0,1-.687.175.893.893,0,0,1-.537-.162,1.279,1.279,0,0,1-.363-.4l-.562-.988a7.626,7.626,0,0,1,5.337-2.025,5.157,5.157,0,0,1,2.006.369,4.265,4.265,0,0,1,1.494,1.025,4.387,4.387,0,0,1,.931,1.569,6.028,6.028,0,0,1,.319,2Zm-6-1.925a4.159,4.159,0,0,0,.875-.086,3.35,3.35,0,0,0,.756-.258,4.03,4.03,0,0,0,.688-.425,6.207,6.207,0,0,0,.669-.6V-5.438a12.536,12.536,0,0,0-2.256.17,5.961,5.961,0,0,0-1.456.434,1.874,1.874,0,0,0-.781.617,1.372,1.372,0,0,0-.231.768,1.355,1.355,0,0,0,.481,1.171A2.075,2.075,0,0,0,217.9-1.925ZM226.937,0V-12.825h1.813a.972.972,0,0,1,.663.175,1.006,1.006,0,0,1,.25.6l.188,1.55a6.093,6.093,0,0,1,1.613-1.875,3.393,3.393,0,0,1,2.075-.687,2.682,2.682,0,0,1,1.575.438l-.4,2.312a.477.477,0,0,1-.163.319.55.55,0,0,1-.337.094,2.1,2.1,0,0,1-.512-.087,3.43,3.43,0,0,0-.863-.088,2.618,2.618,0,0,0-1.65.531,4.09,4.09,0,0,0-1.162,1.556V0ZM241.7,3.525a1.193,1.193,0,0,1-.356.494,1.09,1.09,0,0,1-.669.169h-2.3l2.4-5.138-5.187-11.875h2.7a.847.847,0,0,1,.575.175,1.15,1.15,0,0,1,.3.4L241.9-5.6a5.866,5.866,0,0,1,.238.675q.1.35.175.7.1-.363.219-.7t.256-.687l2.575-6.637a.91.91,0,0,1,.331-.413.881.881,0,0,1,.519-.163h2.475Z" transform="translate(365 730) rotate(-90)" fill="#3d3d3d"/><path d="M-50.213-6.7V0h-2.413V-17.913h5.288a9.922,9.922,0,0,1,2.956.394A5.678,5.678,0,0,1-42.3-16.4a4.509,4.509,0,0,1,1.231,1.75,6.16,6.16,0,0,1,.406,2.288,5.829,5.829,0,0,1-.437,2.287,4.922,4.922,0,0,1-1.281,1.788,5.952,5.952,0,0,1-2.094,1.169,9,9,0,0,1-2.862.419Zm0-1.925h2.875A5.587,5.587,0,0,0-45.506-8.9a3.755,3.755,0,0,0,1.331-.769,3.193,3.193,0,0,0,.813-1.181,4.037,4.037,0,0,0,.275-1.512,3.436,3.436,0,0,0-1.056-2.675A4.61,4.61,0,0,0-47.338-16h-2.875ZM-37.95,0V-12.663h1.275a.7.7,0,0,1,.5.137.843.843,0,0,1,.188.475l.15,1.975a5.792,5.792,0,0,1,1.606-2.069,3.549,3.549,0,0,1,2.244-.744,3.529,3.529,0,0,1,.95.119,3.311,3.311,0,0,1,.788.331l-.288,1.663a.376.376,0,0,1-.387.313,1.945,1.945,0,0,1-.538-.119,3.39,3.39,0,0,0-1.013-.119,2.868,2.868,0,0,0-1.944.675,5.067,5.067,0,0,0-1.306,1.962V0Zm15.2-12.863a6.5,6.5,0,0,1,2.506.462,5.285,5.285,0,0,1,1.9,1.313,5.81,5.81,0,0,1,1.2,2.056,8.176,8.176,0,0,1,.419,2.694,8.161,8.161,0,0,1-.419,2.7,5.819,5.819,0,0,1-1.2,2.05,5.218,5.218,0,0,1-1.9,1.306A6.582,6.582,0,0,1-22.75.175a6.582,6.582,0,0,1-2.506-.456,5.278,5.278,0,0,1-1.906-1.306,5.844,5.844,0,0,1-1.212-2.05,8.052,8.052,0,0,1-.425-2.7,8.066,8.066,0,0,1,.425-2.694,5.835,5.835,0,0,1,1.212-2.056A5.345,5.345,0,0,1-25.256-12.4,6.5,6.5,0,0,1-22.75-12.863Zm0,11.3a3.251,3.251,0,0,0,2.8-1.256,5.817,5.817,0,0,0,.925-3.506A5.87,5.87,0,0,0-19.95-9.85a3.244,3.244,0,0,0-2.8-1.263,3.886,3.886,0,0,0-1.65.325,3.088,3.088,0,0,0-1.169.938,4.164,4.164,0,0,0-.7,1.506A8.074,8.074,0,0,0-26.5-6.325a8,8,0,0,0,.231,2.013,4.1,4.1,0,0,0,.7,1.494,3.112,3.112,0,0,0,1.169.931A3.886,3.886,0,0,0-22.75-1.562ZM-13.975,0V-12.663h1.325a.567.567,0,0,1,.6.462l.163,1.3a6.5,6.5,0,0,1,1.569-1.413,3.693,3.693,0,0,1,2.019-.55,3,3,0,0,1,2.081.712,4.008,4.008,0,0,1,1.144,1.925,3.963,3.963,0,0,1,.694-1.187,4.03,4.03,0,0,1,.969-.825,4.1,4.1,0,0,1,1.144-.475,5.108,5.108,0,0,1,1.231-.15,4.683,4.683,0,0,1,1.781.319,3.527,3.527,0,0,1,1.325.931A4.148,4.148,0,0,1,2.9-10.106a6.67,6.67,0,0,1,.288,2.044V0H.962V-8.063a3.413,3.413,0,0,0-.65-2.256,2.334,2.334,0,0,0-1.888-.769,2.832,2.832,0,0,0-1.044.194,2.515,2.515,0,0,0-.869.569,2.666,2.666,0,0,0-.594.944A3.66,3.66,0,0,0-4.3-8.063V0H-6.525V-8.063a3.548,3.548,0,0,0-.613-2.275,2.174,2.174,0,0,0-1.788-.75,2.824,2.824,0,0,0-1.531.444A5.013,5.013,0,0,0-11.75-9.438V0Zm23-12.663V0H6.8V-12.663Zm.5-3.975a1.416,1.416,0,0,1-.131.606,1.746,1.746,0,0,1-.35.5,1.626,1.626,0,0,1-.506.344,1.519,1.519,0,0,1-.613.125,1.476,1.476,0,0,1-.606-.125,1.648,1.648,0,0,1-.5-.344,1.648,1.648,0,0,1-.344-.5,1.476,1.476,0,0,1-.125-.606,1.564,1.564,0,0,1,.125-.619,1.606,1.606,0,0,1,.344-.513,1.648,1.648,0,0,1,.5-.344,1.476,1.476,0,0,1,.606-.125,1.519,1.519,0,0,1,.613.125,1.626,1.626,0,0,1,.506.344,1.7,1.7,0,0,1,.35.513A1.5,1.5,0,0,1,9.525-16.638ZM20.2-10.575a.493.493,0,0,1-.463.275.87.87,0,0,1-.425-.137q-.237-.137-.581-.306a5.459,5.459,0,0,0-.819-.312,3.906,3.906,0,0,0-1.125-.144,3.32,3.32,0,0,0-1.013.144,2.431,2.431,0,0,0-.769.394,1.742,1.742,0,0,0-.488.581,1.561,1.561,0,0,0-.169.719,1.2,1.2,0,0,0,.281.813,2.444,2.444,0,0,0,.744.562,6.484,6.484,0,0,0,1.05.419q.587.181,1.206.388t1.206.456a4.377,4.377,0,0,1,1.05.625,2.859,2.859,0,0,1,.744.919,2.812,2.812,0,0,1,.281,1.306A4.137,4.137,0,0,1,20.6-2.256a3.532,3.532,0,0,1-.925,1.288,4.46,4.46,0,0,1-1.5.856A6.163,6.163,0,0,1,16.125.2a6.4,6.4,0,0,1-2.4-.431A6.081,6.081,0,0,1,11.9-1.338l.525-.85a.763.763,0,0,1,.238-.25.667.667,0,0,1,.362-.088.838.838,0,0,1,.475.175q.25.175.606.388a4.665,4.665,0,0,0,.862.388,3.931,3.931,0,0,0,1.269.175,3.478,3.478,0,0,0,1.138-.169,2.389,2.389,0,0,0,.813-.456,1.807,1.807,0,0,0,.481-.662,2.059,2.059,0,0,0,.156-.8,1.327,1.327,0,0,0-.281-.869,2.374,2.374,0,0,0-.744-.587,6.061,6.061,0,0,0-1.056-.425q-.594-.181-1.212-.381t-1.212-.456a4.262,4.262,0,0,1-1.056-.644,2.916,2.916,0,0,1-.744-.956,3.092,3.092,0,0,1-.281-1.381,3.369,3.369,0,0,1,.3-1.394,3.418,3.418,0,0,1,.875-1.175,4.309,4.309,0,0,1,1.412-.806,5.653,5.653,0,0,1,1.912-.3,6.049,6.049,0,0,1,2.244.394A5.31,5.31,0,0,1,20.7-11.388Zm6.075-2.088V0H24.05V-12.663Zm.5-3.975a1.416,1.416,0,0,1-.131.606,1.746,1.746,0,0,1-.35.5,1.626,1.626,0,0,1-.506.344,1.519,1.519,0,0,1-.612.125,1.476,1.476,0,0,1-.606-.125,1.648,1.648,0,0,1-.5-.344,1.648,1.648,0,0,1-.344-.5,1.476,1.476,0,0,1-.125-.606,1.564,1.564,0,0,1,.125-.619,1.606,1.606,0,0,1,.344-.513,1.648,1.648,0,0,1,.5-.344,1.476,1.476,0,0,1,.606-.125,1.519,1.519,0,0,1,.612.125,1.626,1.626,0,0,1,.506.344,1.7,1.7,0,0,1,.35.513A1.5,1.5,0,0,1,26.775-16.638ZM30.2,0V-12.663h1.325a.567.567,0,0,1,.6.462l.175,1.375A7.117,7.117,0,0,1,34.144-12.3a4.8,4.8,0,0,1,2.356-.562,4.572,4.572,0,0,1,1.831.344,3.543,3.543,0,0,1,1.325.975,4.306,4.306,0,0,1,.806,1.519,6.609,6.609,0,0,1,.275,1.962V0H38.513V-8.063a3.408,3.408,0,0,0-.656-2.231,2.453,2.453,0,0,0-2.006-.794,3.74,3.74,0,0,0-1.844.475,6.072,6.072,0,0,0-1.581,1.287V0ZM48.363-12.875a6.3,6.3,0,0,1,1.544.181,4.856,4.856,0,0,1,1.306.531H54.65v.825q0,.413-.525.525l-1.438.2A3.85,3.85,0,0,1,53.113-8.8a3.9,3.9,0,0,1-.356,1.681,3.814,3.814,0,0,1-.987,1.294,4.432,4.432,0,0,1-1.5.825,6.037,6.037,0,0,1-1.906.287,6.406,6.406,0,0,1-1.675-.213,2.129,2.129,0,0,0-.606.556,1.021,1.021,0,0,0-.206.582.79.79,0,0,0,.363.7,2.523,2.523,0,0,0,.962.342,8.077,8.077,0,0,0,1.362.1h1.556a8.651,8.651,0,0,1,1.556.139,4.721,4.721,0,0,1,1.362.456A2.543,2.543,0,0,1,54-1.17,2.6,2.6,0,0,1,54.363.273a3.382,3.382,0,0,1-.406,1.594A4.3,4.3,0,0,1,52.788,3.24a6,6,0,0,1-1.862.962,7.967,7.967,0,0,1-2.488.361,9.588,9.588,0,0,1-2.431-.275,5.683,5.683,0,0,1-1.731-.738,3.216,3.216,0,0,1-1.031-1.07,2.541,2.541,0,0,1-.344-1.27,2.3,2.3,0,0,1,.594-1.6,4.072,4.072,0,0,1,1.631-1.045,2.236,2.236,0,0,1-.856-.668,1.8,1.8,0,0,1-.319-1.117,1.756,1.756,0,0,1,.1-.568,2.231,2.231,0,0,1,.306-.58,3.258,3.258,0,0,1,.506-.549,3.289,3.289,0,0,1,.7-.462,3.94,3.94,0,0,1-1.469-1.394A3.816,3.816,0,0,1,43.563-8.8a3.9,3.9,0,0,1,.356-1.681,3.718,3.718,0,0,1,.994-1.288,4.545,4.545,0,0,1,1.519-.819A6.2,6.2,0,0,1,48.363-12.875ZM52.313.643a1.122,1.122,0,0,0-.262-.778,1.691,1.691,0,0,0-.713-.453A5.083,5.083,0,0,0,50.3-.824,9.592,9.592,0,0,0,49.063-.9H47.738a4.826,4.826,0,0,1-1.288-.169,3.655,3.655,0,0,0-1.156.826A1.672,1.672,0,0,0,44.85.922a1.533,1.533,0,0,0,.219.795,1.865,1.865,0,0,0,.669.638,3.913,3.913,0,0,0,1.131.426,7.244,7.244,0,0,0,1.606.157,7.143,7.143,0,0,0,1.612-.166A4,4,0,0,0,51.294,2.3a2.29,2.29,0,0,0,.756-.727A1.724,1.724,0,0,0,52.313.643Zm-3.95-6.83a3.5,3.5,0,0,0,1.194-.187,2.413,2.413,0,0,0,.869-.525,2.148,2.148,0,0,0,.525-.806,2.927,2.927,0,0,0,.175-1.031,2.463,2.463,0,0,0-.706-1.85,2.832,2.832,0,0,0-2.056-.687,2.813,2.813,0,0,0-2.044.688,2.463,2.463,0,0,0-.706,1.85,2.837,2.837,0,0,0,.181,1.031,2.214,2.214,0,0,0,.531.806,2.422,2.422,0,0,0,.862.525A3.408,3.408,0,0,0,48.363-6.188Z" transform="translate(1140 959)" fill="#fff"/><path d="M-84.388-17.913a1.088,1.088,0,0,1,.481.081,1.245,1.245,0,0,1,.356.331L-73.175-4q-.038-.325-.05-.631t-.013-.594V-17.913h2.125V0h-1.225a1.042,1.042,0,0,1-.481-.1A1.215,1.215,0,0,1-73.2-.437L-83.563-13.925q.025.312.037.613t.013.55V0h-2.125V-17.913Zm22.313,5.05a5.652,5.652,0,0,1,2.1.381,4.714,4.714,0,0,1,1.662,1.1,5.015,5.015,0,0,1,1.094,1.775A6.857,6.857,0,0,1-56.825-7.2a1.451,1.451,0,0,1-.113.7.467.467,0,0,1-.425.175h-8.425a6.991,6.991,0,0,0,.325,2.088,4.268,4.268,0,0,0,.825,1.481,3.305,3.305,0,0,0,1.25.888,4.293,4.293,0,0,0,1.625.294,4.767,4.767,0,0,0,1.444-.194,6.869,6.869,0,0,0,1.044-.419,7.962,7.962,0,0,0,.731-.419.969.969,0,0,1,.506-.194.49.49,0,0,1,.425.213l.625.813a4.226,4.226,0,0,1-.988.869A6.149,6.149,0,0,1-59.206-.3a7.82,7.82,0,0,1-1.356.356A8.284,8.284,0,0,1-61.95.175a6.439,6.439,0,0,1-2.419-.444,5.309,5.309,0,0,1-1.912-1.3,5.964,5.964,0,0,1-1.256-2.119,8.616,8.616,0,0,1-.45-2.9,7.378,7.378,0,0,1,.406-2.475,5.834,5.834,0,0,1,1.169-1.994,5.38,5.38,0,0,1,1.863-1.325A6.114,6.114,0,0,1-62.075-12.863Zm.05,1.637a3.416,3.416,0,0,0-2.538.931,4.383,4.383,0,0,0-1.15,2.581h6.888a4.505,4.505,0,0,0-.213-1.419,3.161,3.161,0,0,0-.625-1.113,2.8,2.8,0,0,0-1.006-.725A3.394,3.394,0,0,0-62.025-11.225Zm6.387-1.437h1.75a.707.707,0,0,1,.45.137.688.688,0,0,1,.237.325l2.425,8.15q.1.45.188.869t.15.844q.1-.425.225-.844t.263-.869l2.675-8.2a.66.66,0,0,1,.219-.312.61.61,0,0,1,.394-.125h.962a.657.657,0,0,1,.413.125.645.645,0,0,1,.225.313l2.612,8.2q.138.438.244.862T-42-2.35q.063-.413.162-.862t.213-.838l2.475-8.15a.648.648,0,0,1,.238-.331.668.668,0,0,1,.412-.131h1.675L-40.925,0h-1.763q-.325,0-.45-.425l-2.8-8.587a4.824,4.824,0,0,1-.162-.581q-.063-.294-.125-.581-.063.287-.125.587A4.711,4.711,0,0,1-46.513-9L-49.35-.425A.521.521,0,0,1-49.863,0h-1.675Zm38.6,8.963a.5.5,0,0,1,.363.162l.95,1.038A7.663,7.663,0,0,1-18.394-.512,9.1,9.1,0,0,1-22.175.2a8.9,8.9,0,0,1-3.513-.669,7.7,7.7,0,0,1-2.687-1.875A8.476,8.476,0,0,1-30.1-5.238a10.81,10.81,0,0,1-.612-3.712,10.16,10.16,0,0,1,.656-3.713,8.483,8.483,0,0,1,1.844-2.9,8.251,8.251,0,0,1,2.844-1.881,9.68,9.68,0,0,1,3.656-.669,8.622,8.622,0,0,1,3.406.612,8.608,8.608,0,0,1,2.544,1.663l-.788,1.112a.858.858,0,0,1-.2.206.55.55,0,0,1-.325.081.633.633,0,0,1-.344-.119q-.181-.119-.431-.294t-.587-.375a5.149,5.149,0,0,0-.8-.375,6.61,6.61,0,0,0-1.075-.294,7.483,7.483,0,0,0-1.413-.119,6.82,6.82,0,0,0-2.631.494,5.892,5.892,0,0,0-2.056,1.406,6.4,6.4,0,0,0-1.344,2.225,8.485,8.485,0,0,0-.481,2.938,8.642,8.642,0,0,0,.481,2.987,6.6,6.6,0,0,0,1.313,2.219,5.534,5.534,0,0,0,1.969,1.381,6.294,6.294,0,0,0,2.45.475,9.949,9.949,0,0,0,1.438-.094,5.9,5.9,0,0,0,1.181-.294,5,5,0,0,0,1.012-.506,7.918,7.918,0,0,0,.944-.731A.635.635,0,0,1-17.038-3.7Zm6.075-8.963v8.075A3.36,3.36,0,0,0-10.3-2.363a2.466,2.466,0,0,0,2,.788,3.831,3.831,0,0,0,1.837-.463A5.715,5.715,0,0,0-4.875-3.325v-9.338H-2.65V0H-3.975a.567.567,0,0,1-.6-.463L-4.75-1.825A6.966,6.966,0,0,1-6.6-.356,4.848,4.848,0,0,1-8.95.2a4.572,4.572,0,0,1-1.831-.344,3.631,3.631,0,0,1-1.331-.969,4.114,4.114,0,0,1-.806-1.512,6.752,6.752,0,0,1-.269-1.963v-8.075ZM8.262-10.575A.493.493,0,0,1,7.8-10.3a.87.87,0,0,1-.425-.137q-.237-.137-.581-.306a5.459,5.459,0,0,0-.819-.312A3.906,3.906,0,0,0,4.85-11.2a3.32,3.32,0,0,0-1.012.144,2.431,2.431,0,0,0-.769.394,1.742,1.742,0,0,0-.488.581,1.561,1.561,0,0,0-.169.719,1.2,1.2,0,0,0,.281.813,2.444,2.444,0,0,0,.744.562,6.484,6.484,0,0,0,1.05.419q.587.181,1.206.388T6.9-6.725A4.377,4.377,0,0,1,7.95-6.1a2.859,2.859,0,0,1,.744.919,2.812,2.812,0,0,1,.281,1.306,4.137,4.137,0,0,1-.312,1.619A3.532,3.532,0,0,1,7.738-.969a4.46,4.46,0,0,1-1.5.856A6.163,6.163,0,0,1,4.188.2a6.4,6.4,0,0,1-2.4-.431A6.081,6.081,0,0,1-.037-1.338l.525-.85a.763.763,0,0,1,.237-.25.667.667,0,0,1,.363-.088.838.838,0,0,1,.475.175q.25.175.606.388a4.665,4.665,0,0,0,.862.388A3.931,3.931,0,0,0,4.3-1.4a3.478,3.478,0,0,0,1.137-.169,2.389,2.389,0,0,0,.813-.456,1.807,1.807,0,0,0,.481-.662,2.059,2.059,0,0,0,.156-.8,1.327,1.327,0,0,0-.281-.869,2.374,2.374,0,0,0-.744-.587,6.061,6.061,0,0,0-1.056-.425Q4.212-5.55,3.594-5.75T2.381-6.206A4.262,4.262,0,0,1,1.325-6.85a2.916,2.916,0,0,1-.744-.956A3.092,3.092,0,0,1,.3-9.187a3.369,3.369,0,0,1,.3-1.394,3.418,3.418,0,0,1,.875-1.175,4.309,4.309,0,0,1,1.412-.806,5.653,5.653,0,0,1,1.913-.3,6.049,6.049,0,0,1,2.244.394,5.31,5.31,0,0,1,1.719,1.081ZM15.7.2a3.053,3.053,0,0,1-2.306-.838,3.342,3.342,0,0,1-.806-2.413V-10.8H11.062a.5.5,0,0,1-.337-.119.462.462,0,0,1-.137-.369v-.887l2.075-.263.513-3.912a.473.473,0,0,1,.162-.306.516.516,0,0,1,.35-.119h1.125v4.362h3.625V-10.8H14.812v7.6A1.617,1.617,0,0,0,15.2-2.013a1.353,1.353,0,0,0,1,.388,1.765,1.765,0,0,0,.606-.094,2.6,2.6,0,0,0,.444-.206q.188-.112.319-.206a.417.417,0,0,1,.231-.094.383.383,0,0,1,.313.212l.65,1.063a4.145,4.145,0,0,1-1.388.844A4.711,4.711,0,0,1,15.7.2ZM26.312-12.863a6.5,6.5,0,0,1,2.506.462,5.285,5.285,0,0,1,1.9,1.313,5.81,5.81,0,0,1,1.2,2.056,8.176,8.176,0,0,1,.419,2.694,8.161,8.161,0,0,1-.419,2.7,5.819,5.819,0,0,1-1.2,2.05,5.218,5.218,0,0,1-1.9,1.306,6.582,6.582,0,0,1-2.506.456,6.582,6.582,0,0,1-2.506-.456A5.278,5.278,0,0,1,21.9-1.588a5.844,5.844,0,0,1-1.212-2.05,8.052,8.052,0,0,1-.425-2.7,8.066,8.066,0,0,1,.425-2.694A5.835,5.835,0,0,1,21.9-11.088,5.345,5.345,0,0,1,23.806-12.4,6.5,6.5,0,0,1,26.312-12.863Zm0,11.3a3.251,3.251,0,0,0,2.8-1.256,5.817,5.817,0,0,0,.925-3.506,5.87,5.87,0,0,0-.925-3.525,3.244,3.244,0,0,0-2.8-1.263,3.886,3.886,0,0,0-1.65.325,3.088,3.088,0,0,0-1.169.938,4.164,4.164,0,0,0-.7,1.506,8.074,8.074,0,0,0-.231,2.019,8,8,0,0,0,.231,2.013,4.1,4.1,0,0,0,.7,1.494,3.113,3.113,0,0,0,1.169.931A3.886,3.886,0,0,0,26.312-1.562ZM35.087,0V-12.663h1.325a.567.567,0,0,1,.6.462l.162,1.3a6.5,6.5,0,0,1,1.569-1.413,3.693,3.693,0,0,1,2.019-.55,3,3,0,0,1,2.081.712,4.008,4.008,0,0,1,1.144,1.925,3.963,3.963,0,0,1,.694-1.187,4.03,4.03,0,0,1,.969-.825,4.1,4.1,0,0,1,1.144-.475,5.108,5.108,0,0,1,1.231-.15,4.683,4.683,0,0,1,1.781.319,3.527,3.527,0,0,1,1.325.931,4.148,4.148,0,0,1,.831,1.506,6.67,6.67,0,0,1,.288,2.044V0H50.025V-8.063a3.413,3.413,0,0,0-.65-2.256,2.334,2.334,0,0,0-1.888-.769,2.832,2.832,0,0,0-1.044.194,2.515,2.515,0,0,0-.869.569,2.666,2.666,0,0,0-.594.944,3.66,3.66,0,0,0-.219,1.319V0H42.537V-8.063a3.548,3.548,0,0,0-.613-2.275,2.174,2.174,0,0,0-1.787-.75,2.824,2.824,0,0,0-1.531.444,5.013,5.013,0,0,0-1.294,1.206V0ZM60.625-12.863a5.652,5.652,0,0,1,2.1.381,4.714,4.714,0,0,1,1.662,1.1,5.015,5.015,0,0,1,1.094,1.775A6.857,6.857,0,0,1,65.875-7.2a1.451,1.451,0,0,1-.113.7.467.467,0,0,1-.425.175H56.912a6.991,6.991,0,0,0,.325,2.088,4.268,4.268,0,0,0,.825,1.481,3.305,3.305,0,0,0,1.25.888,4.293,4.293,0,0,0,1.625.294,4.767,4.767,0,0,0,1.444-.194,6.869,6.869,0,0,0,1.044-.419,7.962,7.962,0,0,0,.731-.419.969.969,0,0,1,.506-.194.49.49,0,0,1,.425.213l.625.813a4.226,4.226,0,0,1-.988.869A6.148,6.148,0,0,1,63.494-.3a7.82,7.82,0,0,1-1.356.356A8.284,8.284,0,0,1,60.75.175a6.439,6.439,0,0,1-2.419-.444,5.309,5.309,0,0,1-1.913-1.3,5.964,5.964,0,0,1-1.256-2.119,8.616,8.616,0,0,1-.45-2.9,7.378,7.378,0,0,1,.406-2.475,5.834,5.834,0,0,1,1.169-1.994,5.38,5.38,0,0,1,1.862-1.325A6.114,6.114,0,0,1,60.625-12.863Zm.05,1.637a3.416,3.416,0,0,0-2.538.931,4.383,4.383,0,0,0-1.15,2.581h6.888a4.505,4.505,0,0,0-.213-1.419,3.161,3.161,0,0,0-.625-1.113,2.8,2.8,0,0,0-1.006-.725A3.394,3.394,0,0,0,60.675-11.225ZM68.713,0V-12.663h1.275a.7.7,0,0,1,.5.137.843.843,0,0,1,.188.475l.15,1.975a5.792,5.792,0,0,1,1.606-2.069,3.549,3.549,0,0,1,2.244-.744,3.529,3.529,0,0,1,.95.119,3.311,3.311,0,0,1,.787.331l-.287,1.663a.376.376,0,0,1-.388.313,1.945,1.945,0,0,1-.537-.119,3.39,3.39,0,0,0-1.012-.119,2.868,2.868,0,0,0-1.944.675,5.067,5.067,0,0,0-1.306,1.962V0ZM86.037-10.575a.493.493,0,0,1-.462.275.87.87,0,0,1-.425-.137q-.237-.137-.581-.306a5.459,5.459,0,0,0-.819-.312,3.906,3.906,0,0,0-1.125-.144,3.32,3.32,0,0,0-1.012.144,2.431,2.431,0,0,0-.769.394,1.742,1.742,0,0,0-.487.581,1.56,1.56,0,0,0-.169.719,1.2,1.2,0,0,0,.281.813,2.444,2.444,0,0,0,.744.562,6.484,6.484,0,0,0,1.05.419q.587.181,1.206.388t1.206.456a4.377,4.377,0,0,1,1.05.625,2.859,2.859,0,0,1,.744.919,2.812,2.812,0,0,1,.281,1.306,4.137,4.137,0,0,1-.312,1.619,3.532,3.532,0,0,1-.925,1.288,4.46,4.46,0,0,1-1.5.856A6.163,6.163,0,0,1,81.963.2a6.4,6.4,0,0,1-2.4-.431,6.081,6.081,0,0,1-1.825-1.106l.525-.85a.763.763,0,0,1,.237-.25.667.667,0,0,1,.363-.088.838.838,0,0,1,.475.175q.25.175.606.388a4.665,4.665,0,0,0,.863.388,3.931,3.931,0,0,0,1.269.175,3.478,3.478,0,0,0,1.137-.169,2.389,2.389,0,0,0,.813-.456,1.807,1.807,0,0,0,.481-.662,2.059,2.059,0,0,0,.156-.8,1.327,1.327,0,0,0-.281-.869,2.374,2.374,0,0,0-.744-.587,6.061,6.061,0,0,0-1.056-.425q-.594-.181-1.213-.381t-1.213-.456A4.262,4.262,0,0,1,79.1-6.85a2.916,2.916,0,0,1-.744-.956,3.092,3.092,0,0,1-.281-1.381,3.369,3.369,0,0,1,.3-1.394,3.418,3.418,0,0,1,.875-1.175,4.309,4.309,0,0,1,1.412-.806,5.653,5.653,0,0,1,1.913-.3,6.049,6.049,0,0,1,2.244.394,5.31,5.31,0,0,1,1.719,1.081Z" transform="translate(1345 959)" fill="#fff"/><path d="M-63.4,0h-1.875A.807.807,0,0,1-65.8-.163a1,1,0,0,1-.3-.413L-67.775-4.9h-8.037L-77.488-.575a.977.977,0,0,1-.3.4A.8.8,0,0,1-78.312,0h-1.875l7.162-17.913h2.463ZM-75.137-6.65h6.688l-2.812-7.287a13.62,13.62,0,0,1-.538-1.687q-.138.512-.269.944t-.256.756ZM-61.412,0V-18.413h2.237v7.575a6.469,6.469,0,0,1,1.806-1.469,4.786,4.786,0,0,1,2.331-.556,4.66,4.66,0,0,1,1.987.412,4.015,4.015,0,0,1,1.513,1.231,5.939,5.939,0,0,1,.963,2.025,10.356,10.356,0,0,1,.337,2.781,8.737,8.737,0,0,1-.375,2.606,6.28,6.28,0,0,1-1.081,2.088A5.082,5.082,0,0,1-53.419-.331a5.084,5.084,0,0,1-2.294.506A4.234,4.234,0,0,1-57.794-.3a4.734,4.734,0,0,1-1.494-1.325L-59.4-.475A.535.535,0,0,1-59.975,0Zm5.65-11.088a3.584,3.584,0,0,0-1.906.5,5.5,5.5,0,0,0-1.506,1.413V-3.05a3.487,3.487,0,0,0,1.331,1.163,3.847,3.847,0,0,0,1.631.337,3.2,3.2,0,0,0,2.725-1.262,5.9,5.9,0,0,0,.95-3.6,8.983,8.983,0,0,0-.219-2.125,4.155,4.155,0,0,0-.631-1.456,2.456,2.456,0,0,0-1.013-.831A3.368,3.368,0,0,0-55.763-11.088Zm13.375-1.775a6.5,6.5,0,0,1,2.506.462,5.285,5.285,0,0,1,1.9,1.313,5.81,5.81,0,0,1,1.2,2.056,8.176,8.176,0,0,1,.419,2.694,8.161,8.161,0,0,1-.419,2.7,5.819,5.819,0,0,1-1.2,2.05,5.218,5.218,0,0,1-1.9,1.306,6.582,6.582,0,0,1-2.506.456,6.582,6.582,0,0,1-2.506-.456A5.278,5.278,0,0,1-46.8-1.588a5.844,5.844,0,0,1-1.212-2.05,8.052,8.052,0,0,1-.425-2.7,8.066,8.066,0,0,1,.425-2.694A5.835,5.835,0,0,1-46.8-11.088,5.345,5.345,0,0,1-44.894-12.4,6.5,6.5,0,0,1-42.388-12.863Zm0,11.3a3.251,3.251,0,0,0,2.8-1.256,5.817,5.817,0,0,0,.925-3.506,5.87,5.87,0,0,0-.925-3.525,3.244,3.244,0,0,0-2.8-1.263,3.886,3.886,0,0,0-1.65.325,3.088,3.088,0,0,0-1.169.938,4.164,4.164,0,0,0-.7,1.506,8.074,8.074,0,0,0-.231,2.019,8,8,0,0,0,.231,2.013,4.1,4.1,0,0,0,.7,1.494,3.112,3.112,0,0,0,1.169.931A3.886,3.886,0,0,0-42.388-1.562Zm10.7-11.1v8.075a3.36,3.36,0,0,0,.663,2.225,2.466,2.466,0,0,0,2,.788,3.831,3.831,0,0,0,1.837-.463A5.715,5.715,0,0,0-25.6-3.325v-9.338h2.225V0H-24.7a.567.567,0,0,1-.6-.463l-.175-1.363a6.966,6.966,0,0,1-1.85,1.469A4.848,4.848,0,0,1-29.675.2a4.572,4.572,0,0,1-1.831-.344,3.631,3.631,0,0,1-1.331-.969,4.114,4.114,0,0,1-.806-1.512,6.752,6.752,0,0,1-.269-1.963v-8.075ZM-15.875.2a3.053,3.053,0,0,1-2.306-.838,3.342,3.342,0,0,1-.806-2.413V-10.8h-1.525a.5.5,0,0,1-.337-.119.461.461,0,0,1-.138-.369v-.887l2.075-.263.513-3.912a.473.473,0,0,1,.162-.306.516.516,0,0,1,.35-.119h1.125v4.362h3.625V-10.8h-3.625v7.6a1.617,1.617,0,0,0,.387,1.187,1.353,1.353,0,0,0,1,.388,1.765,1.765,0,0,0,.606-.094,2.6,2.6,0,0,0,.444-.206q.188-.112.319-.206a.417.417,0,0,1,.231-.094.383.383,0,0,1,.313.212l.65,1.063A4.145,4.145,0,0,1-14.2-.106,4.711,4.711,0,0,1-15.875.2Zm14.15,0A3.053,3.053,0,0,1-4.031-.638,3.342,3.342,0,0,1-4.838-3.05V-10.8H-6.363a.5.5,0,0,1-.338-.119.462.462,0,0,1-.137-.369v-.887l2.075-.263.513-3.912a.473.473,0,0,1,.162-.306.516.516,0,0,1,.35-.119h1.125v4.362H1.012V-10.8H-2.613v7.6a1.617,1.617,0,0,0,.387,1.187,1.353,1.353,0,0,0,1,.388,1.765,1.765,0,0,0,.606-.094,2.6,2.6,0,0,0,.444-.206q.188-.112.319-.206a.417.417,0,0,1,.231-.094.383.383,0,0,1,.313.212L1.337-.95A4.145,4.145,0,0,1-.05-.106,4.711,4.711,0,0,1-1.725.2ZM8.887-12.863a6.5,6.5,0,0,1,2.506.462,5.285,5.285,0,0,1,1.9,1.313,5.81,5.81,0,0,1,1.2,2.056,8.176,8.176,0,0,1,.419,2.694,8.161,8.161,0,0,1-.419,2.7,5.819,5.819,0,0,1-1.2,2.05,5.218,5.218,0,0,1-1.9,1.306A6.582,6.582,0,0,1,8.887.175,6.582,6.582,0,0,1,6.381-.281,5.278,5.278,0,0,1,4.475-1.588a5.844,5.844,0,0,1-1.213-2.05,8.052,8.052,0,0,1-.425-2.7,8.066,8.066,0,0,1,.425-2.694,5.835,5.835,0,0,1,1.213-2.056A5.345,5.345,0,0,1,6.381-12.4,6.5,6.5,0,0,1,8.887-12.863Zm0,11.3a3.251,3.251,0,0,0,2.8-1.256,5.817,5.817,0,0,0,.925-3.506,5.87,5.87,0,0,0-.925-3.525,3.244,3.244,0,0,0-2.8-1.263,3.886,3.886,0,0,0-1.65.325,3.088,3.088,0,0,0-1.169.938,4.164,4.164,0,0,0-.7,1.506,8.074,8.074,0,0,0-.231,2.019,8,8,0,0,0,.231,2.013,4.1,4.1,0,0,0,.7,1.494,3.113,3.113,0,0,0,1.169.931A3.886,3.886,0,0,0,8.887-1.562Zm23.125-13.55a.969.969,0,0,1-.237.281.528.528,0,0,1-.325.094.866.866,0,0,1-.494-.213,7.87,7.87,0,0,0-.712-.469,5.782,5.782,0,0,0-1.038-.469,4.464,4.464,0,0,0-1.469-.213,4.343,4.343,0,0,0-1.437.219,3.056,3.056,0,0,0-1.044.594,2.437,2.437,0,0,0-.631.881,2.8,2.8,0,0,0-.212,1.094,2.021,2.021,0,0,0,.369,1.244,3.177,3.177,0,0,0,.975.844,7.469,7.469,0,0,0,1.375.606q.769.256,1.575.531t1.575.619a5.54,5.54,0,0,1,1.375.869,3.961,3.961,0,0,1,.975,1.287A4.285,4.285,0,0,1,33-5.438a6.047,6.047,0,0,1-.4,2.206,5.086,5.086,0,0,1-1.169,1.794,5.467,5.467,0,0,1-1.887,1.2A6.943,6.943,0,0,1,27,.2a7.768,7.768,0,0,1-3.169-.631,7.433,7.433,0,0,1-2.444-1.706l.7-1.15a.92.92,0,0,1,.244-.231.571.571,0,0,1,.319-.094,1,1,0,0,1,.6.281,10,10,0,0,0,.844.619,6.445,6.445,0,0,0,1.225.619,4.834,4.834,0,0,0,1.756.281,4.618,4.618,0,0,0,1.538-.237,3.265,3.265,0,0,0,1.144-.669,2.9,2.9,0,0,0,.719-1.031,3.446,3.446,0,0,0,.25-1.337,2.244,2.244,0,0,0-.369-1.331,3.057,3.057,0,0,0-.969-.869,6.772,6.772,0,0,0-1.369-.594l-1.575-.5a15.882,15.882,0,0,1-1.575-.594A5.119,5.119,0,0,1,23.5-9.85a4.021,4.021,0,0,1-.969-1.344,4.786,4.786,0,0,1-.369-1.994,4.744,4.744,0,0,1,.369-1.837A4.736,4.736,0,0,1,23.6-16.6a5.18,5.18,0,0,1,1.731-1.1,6.342,6.342,0,0,1,2.369-.413,7.582,7.582,0,0,1,2.738.475A6.3,6.3,0,0,1,32.6-16.263Zm6.2-3.3V0H35.987V-18.413Zm8.938,5.55a5.652,5.652,0,0,1,2.1.381,4.714,4.714,0,0,1,1.662,1.1,5.015,5.015,0,0,1,1.094,1.775A6.857,6.857,0,0,1,52.4-7.2a1.451,1.451,0,0,1-.113.7.467.467,0,0,1-.425.175H43.437a6.991,6.991,0,0,0,.325,2.088,4.268,4.268,0,0,0,.825,1.481,3.305,3.305,0,0,0,1.25.888,4.293,4.293,0,0,0,1.625.294,4.767,4.767,0,0,0,1.444-.194,6.869,6.869,0,0,0,1.044-.419,7.962,7.962,0,0,0,.731-.419.969.969,0,0,1,.506-.194.49.49,0,0,1,.425.213l.625.813a4.226,4.226,0,0,1-.988.869A6.149,6.149,0,0,1,50.019-.3a7.82,7.82,0,0,1-1.356.356,8.284,8.284,0,0,1-1.387.119,6.439,6.439,0,0,1-2.419-.444,5.309,5.309,0,0,1-1.913-1.3,5.964,5.964,0,0,1-1.256-2.119,8.616,8.616,0,0,1-.45-2.9,7.378,7.378,0,0,1,.406-2.475,5.834,5.834,0,0,1,1.169-1.994,5.38,5.38,0,0,1,1.862-1.325A6.114,6.114,0,0,1,47.15-12.863Zm.05,1.637a3.416,3.416,0,0,0-2.538.931,4.383,4.383,0,0,0-1.15,2.581H50.4a4.505,4.505,0,0,0-.213-1.419,3.161,3.161,0,0,0-.625-1.113,2.8,2.8,0,0,0-1.006-.725A3.394,3.394,0,0,0,47.2-11.225Zm13.05-1.637a5.652,5.652,0,0,1,2.1.381,4.714,4.714,0,0,1,1.662,1.1,5.015,5.015,0,0,1,1.094,1.775A6.857,6.857,0,0,1,65.5-7.2a1.451,1.451,0,0,1-.113.7.467.467,0,0,1-.425.175H56.537a6.991,6.991,0,0,0,.325,2.088,4.268,4.268,0,0,0,.825,1.481,3.305,3.305,0,0,0,1.25.888,4.293,4.293,0,0,0,1.625.294,4.767,4.767,0,0,0,1.444-.194,6.869,6.869,0,0,0,1.044-.419,7.962,7.962,0,0,0,.731-.419.969.969,0,0,1,.506-.194.49.49,0,0,1,.425.213l.625.813a4.226,4.226,0,0,1-.988.869A6.149,6.149,0,0,1,63.119-.3a7.82,7.82,0,0,1-1.356.356,8.284,8.284,0,0,1-1.387.119,6.439,6.439,0,0,1-2.419-.444,5.309,5.309,0,0,1-1.913-1.3,5.964,5.964,0,0,1-1.256-2.119,8.616,8.616,0,0,1-.45-2.9,7.378,7.378,0,0,1,.406-2.475,5.834,5.834,0,0,1,1.169-1.994,5.38,5.38,0,0,1,1.862-1.325A6.114,6.114,0,0,1,60.25-12.863Zm.05,1.637a3.416,3.416,0,0,0-2.538.931,4.383,4.383,0,0,0-1.15,2.581H63.5a4.505,4.505,0,0,0-.213-1.419,3.161,3.161,0,0,0-.625-1.113,2.8,2.8,0,0,0-1.006-.725A3.394,3.394,0,0,0,60.3-11.225ZM68.337,4.288v-16.95h1.325a.567.567,0,0,1,.6.462l.188,1.5a6.76,6.76,0,0,1,1.856-1.587,4.742,4.742,0,0,1,2.406-.6,4.571,4.571,0,0,1,1.975.419A4.072,4.072,0,0,1,78.2-11.231,5.935,5.935,0,0,1,79.162-9.2,10.425,10.425,0,0,1,79.5-6.413a8.737,8.737,0,0,1-.375,2.606A6.347,6.347,0,0,1,78.05-1.719,5.02,5.02,0,0,1,76.331-.331a5.084,5.084,0,0,1-2.294.506,4.721,4.721,0,0,1-2.006-.388,4.521,4.521,0,0,1-1.469-1.1v5.6Zm5.638-15.375a3.584,3.584,0,0,0-1.906.5,5.5,5.5,0,0,0-1.506,1.413V-3.05a3.578,3.578,0,0,0,1.344,1.163,3.847,3.847,0,0,0,1.631.337A3.192,3.192,0,0,0,76.25-2.812a5.9,5.9,0,0,0,.95-3.6,8.983,8.983,0,0,0-.219-2.125,4.155,4.155,0,0,0-.631-1.456,2.456,2.456,0,0,0-1.013-.831A3.368,3.368,0,0,0,73.975-11.088Z" transform="translate(935 880)" fill="#fff"/><path d="M-81.612-17.913a1.088,1.088,0,0,1,.481.081,1.245,1.245,0,0,1,.356.331L-70.4-4q-.038-.325-.05-.631t-.013-.594V-17.913h2.125V0h-1.225a1.042,1.042,0,0,1-.481-.1,1.215,1.215,0,0,1-.381-.337L-80.787-13.925q.025.312.037.613t.013.55V0h-2.125V-17.913Zm22.313,5.05a5.652,5.652,0,0,1,2.1.381,4.714,4.714,0,0,1,1.662,1.1,5.015,5.015,0,0,1,1.094,1.775A6.857,6.857,0,0,1-54.05-7.2a1.451,1.451,0,0,1-.113.7.467.467,0,0,1-.425.175h-8.425a6.991,6.991,0,0,0,.325,2.088,4.268,4.268,0,0,0,.825,1.481,3.305,3.305,0,0,0,1.25.888,4.293,4.293,0,0,0,1.625.294,4.767,4.767,0,0,0,1.444-.194A6.869,6.869,0,0,0-56.5-2.188a7.962,7.962,0,0,0,.731-.419.969.969,0,0,1,.506-.194.49.49,0,0,1,.425.213l.625.813a4.226,4.226,0,0,1-.988.869A6.149,6.149,0,0,1-56.431-.3a7.82,7.82,0,0,1-1.356.356,8.284,8.284,0,0,1-1.387.119,6.439,6.439,0,0,1-2.419-.444,5.309,5.309,0,0,1-1.913-1.3,5.964,5.964,0,0,1-1.256-2.119,8.616,8.616,0,0,1-.45-2.9,7.378,7.378,0,0,1,.406-2.475,5.834,5.834,0,0,1,1.169-1.994,5.38,5.38,0,0,1,1.862-1.325A6.114,6.114,0,0,1-59.3-12.863Zm.05,1.637a3.416,3.416,0,0,0-2.538.931,4.383,4.383,0,0,0-1.15,2.581h6.888a4.505,4.505,0,0,0-.213-1.419,3.161,3.161,0,0,0-.625-1.113,2.8,2.8,0,0,0-1.006-.725A3.394,3.394,0,0,0-59.25-11.225Zm13.05-1.637a5.652,5.652,0,0,1,2.1.381,4.714,4.714,0,0,1,1.662,1.1,5.015,5.015,0,0,1,1.094,1.775A6.857,6.857,0,0,1-40.95-7.2a1.451,1.451,0,0,1-.113.7.467.467,0,0,1-.425.175h-8.425a6.991,6.991,0,0,0,.325,2.088,4.268,4.268,0,0,0,.825,1.481,3.305,3.305,0,0,0,1.25.888,4.293,4.293,0,0,0,1.625.294,4.767,4.767,0,0,0,1.444-.194A6.869,6.869,0,0,0-43.4-2.188a7.962,7.962,0,0,0,.731-.419.969.969,0,0,1,.506-.194.49.49,0,0,1,.425.213l.625.813a4.226,4.226,0,0,1-.988.869A6.149,6.149,0,0,1-43.331-.3a7.82,7.82,0,0,1-1.356.356,8.284,8.284,0,0,1-1.387.119,6.439,6.439,0,0,1-2.419-.444,5.309,5.309,0,0,1-1.913-1.3,5.964,5.964,0,0,1-1.256-2.119,8.616,8.616,0,0,1-.45-2.9,7.378,7.378,0,0,1,.406-2.475,5.834,5.834,0,0,1,1.169-1.994,5.38,5.38,0,0,1,1.862-1.325A6.114,6.114,0,0,1-46.2-12.863Zm.05,1.637a3.416,3.416,0,0,0-2.538.931,4.383,4.383,0,0,0-1.15,2.581h6.888a4.505,4.505,0,0,0-.213-1.419,3.161,3.161,0,0,0-.625-1.113,2.8,2.8,0,0,0-1.006-.725A3.394,3.394,0,0,0-46.15-11.225ZM-29.2,0a.567.567,0,0,1-.6-.463L-30-2A6.666,6.666,0,0,1-31.856-.419,4.756,4.756,0,0,1-34.25.175a4.571,4.571,0,0,1-1.975-.419,4.1,4.1,0,0,1-1.513-1.231A5.865,5.865,0,0,1-38.7-3.5a10.425,10.425,0,0,1-.337-2.788,8.737,8.737,0,0,1,.375-2.606,6.352,6.352,0,0,1,1.081-2.094,5.068,5.068,0,0,1,1.719-1.394,5.074,5.074,0,0,1,2.3-.506,4.582,4.582,0,0,1,1.987.394A4.766,4.766,0,0,1-30.1-11.388v-7.025h2.225V0Zm-4.312-1.625a3.584,3.584,0,0,0,1.906-.5A5.5,5.5,0,0,0-30.1-3.538V-9.663a3.521,3.521,0,0,0-1.344-1.156,3.878,3.878,0,0,0-1.619-.331,3.2,3.2,0,0,0-2.725,1.263,5.9,5.9,0,0,0-.95,3.6,9.154,9.154,0,0,0,.212,2.119,4.077,4.077,0,0,0,.625,1.45,2.456,2.456,0,0,0,1.013.831A3.4,3.4,0,0,0-33.512-1.625ZM-4.225,0H-6.1a.807.807,0,0,1-.525-.163,1,1,0,0,1-.3-.413L-8.6-4.9h-8.038L-18.312-.575a.977.977,0,0,1-.3.4A.8.8,0,0,1-19.137,0h-1.875l7.163-17.913h2.462ZM-15.962-6.65h6.688l-2.813-7.287a13.62,13.62,0,0,1-.537-1.687q-.137.512-.269.944t-.256.756ZM1.525.2A3.053,3.053,0,0,1-.781-.638,3.342,3.342,0,0,1-1.587-3.05V-10.8H-3.112a.5.5,0,0,1-.338-.119.462.462,0,0,1-.137-.369v-.887l2.075-.263L-1-16.35a.473.473,0,0,1,.162-.306.516.516,0,0,1,.35-.119H.638v4.362H4.263V-10.8H.638v7.6a1.617,1.617,0,0,0,.387,1.187,1.353,1.353,0,0,0,1,.388,1.765,1.765,0,0,0,.606-.094,2.6,2.6,0,0,0,.444-.206q.188-.112.319-.206a.417.417,0,0,1,.231-.094.383.383,0,0,1,.313.212L4.588-.95A4.145,4.145,0,0,1,3.2-.106,4.711,4.711,0,0,1,1.525.2ZM10.85.2A3.053,3.053,0,0,1,8.544-.638,3.342,3.342,0,0,1,7.738-3.05V-10.8H6.213a.5.5,0,0,1-.338-.119.462.462,0,0,1-.137-.369v-.887l2.075-.263.513-3.912a.473.473,0,0,1,.162-.306.516.516,0,0,1,.35-.119H9.963v4.362h3.625V-10.8H9.963v7.6a1.617,1.617,0,0,0,.387,1.187,1.353,1.353,0,0,0,1,.388,1.765,1.765,0,0,0,.606-.094,2.6,2.6,0,0,0,.444-.206q.188-.112.319-.206a.417.417,0,0,1,.231-.094.383.383,0,0,1,.313.212l.65,1.063a4.145,4.145,0,0,1-1.388.844A4.711,4.711,0,0,1,10.85.2Zm10.5-13.063a5.652,5.652,0,0,1,2.1.381,4.714,4.714,0,0,1,1.663,1.1,5.015,5.015,0,0,1,1.094,1.775A6.857,6.857,0,0,1,26.6-7.2a1.451,1.451,0,0,1-.113.7.467.467,0,0,1-.425.175H17.638a6.991,6.991,0,0,0,.325,2.088,4.268,4.268,0,0,0,.825,1.481,3.305,3.305,0,0,0,1.25.888,4.293,4.293,0,0,0,1.625.294,4.767,4.767,0,0,0,1.444-.194,6.869,6.869,0,0,0,1.044-.419,7.962,7.962,0,0,0,.731-.419.969.969,0,0,1,.506-.194.49.49,0,0,1,.425.213l.625.813a4.226,4.226,0,0,1-.988.869A6.149,6.149,0,0,1,24.219-.3a7.82,7.82,0,0,1-1.356.356,8.284,8.284,0,0,1-1.387.119,6.439,6.439,0,0,1-2.419-.444,5.309,5.309,0,0,1-1.913-1.3,5.964,5.964,0,0,1-1.256-2.119,8.616,8.616,0,0,1-.45-2.9,7.378,7.378,0,0,1,.406-2.475,5.834,5.834,0,0,1,1.169-1.994,5.38,5.38,0,0,1,1.862-1.325A6.114,6.114,0,0,1,21.35-12.863Zm.05,1.637a3.416,3.416,0,0,0-2.538.931,4.383,4.383,0,0,0-1.15,2.581H24.6a4.505,4.505,0,0,0-.213-1.419,3.161,3.161,0,0,0-.625-1.113,2.8,2.8,0,0,0-1.006-.725A3.394,3.394,0,0,0,21.4-11.225ZM29.438,0V-12.663h1.325a.567.567,0,0,1,.6.462l.175,1.375A7.117,7.117,0,0,1,33.381-12.3a4.8,4.8,0,0,1,2.356-.562,4.572,4.572,0,0,1,1.831.344,3.543,3.543,0,0,1,1.325.975,4.306,4.306,0,0,1,.806,1.519,6.609,6.609,0,0,1,.275,1.962V0H37.75V-8.063a3.408,3.408,0,0,0-.656-2.231,2.453,2.453,0,0,0-2.006-.794,3.74,3.74,0,0,0-1.844.475,6.072,6.072,0,0,0-1.581,1.287V0ZM47.175.2a3.053,3.053,0,0,1-2.306-.838,3.342,3.342,0,0,1-.806-2.413V-10.8H42.538a.5.5,0,0,1-.338-.119.461.461,0,0,1-.138-.369v-.887l2.075-.263.513-3.912a.473.473,0,0,1,.162-.306.516.516,0,0,1,.35-.119h1.125v4.362h3.625V-10.8H46.288v7.6a1.617,1.617,0,0,0,.387,1.187,1.353,1.353,0,0,0,1,.388,1.765,1.765,0,0,0,.606-.094,2.6,2.6,0,0,0,.444-.206q.188-.112.319-.206a.417.417,0,0,1,.231-.094.383.383,0,0,1,.313.212l.65,1.063a4.145,4.145,0,0,1-1.387.844A4.712,4.712,0,0,1,47.175.2Zm7.962-12.863V0H52.913V-12.663Zm.5-3.975a1.416,1.416,0,0,1-.131.606,1.746,1.746,0,0,1-.35.5,1.626,1.626,0,0,1-.506.344,1.519,1.519,0,0,1-.612.125,1.476,1.476,0,0,1-.606-.125,1.648,1.648,0,0,1-.5-.344,1.648,1.648,0,0,1-.344-.5,1.476,1.476,0,0,1-.125-.606,1.564,1.564,0,0,1,.125-.619,1.606,1.606,0,0,1,.344-.513,1.648,1.648,0,0,1,.5-.344,1.476,1.476,0,0,1,.606-.125,1.519,1.519,0,0,1,.612.125,1.626,1.626,0,0,1,.506.344,1.7,1.7,0,0,1,.35.513A1.5,1.5,0,0,1,55.638-16.638Zm8.55,3.775a6.5,6.5,0,0,1,2.506.462,5.285,5.285,0,0,1,1.9,1.313,5.81,5.81,0,0,1,1.2,2.056,8.176,8.176,0,0,1,.419,2.694,8.161,8.161,0,0,1-.419,2.7,5.819,5.819,0,0,1-1.2,2.05,5.219,5.219,0,0,1-1.9,1.306,6.582,6.582,0,0,1-2.506.456,6.582,6.582,0,0,1-2.506-.456,5.278,5.278,0,0,1-1.906-1.306,5.844,5.844,0,0,1-1.212-2.05,8.052,8.052,0,0,1-.425-2.7,8.066,8.066,0,0,1,.425-2.694,5.835,5.835,0,0,1,1.212-2.056A5.345,5.345,0,0,1,61.681-12.4,6.5,6.5,0,0,1,64.188-12.863Zm0,11.3a3.251,3.251,0,0,0,2.8-1.256,5.817,5.817,0,0,0,.925-3.506,5.87,5.87,0,0,0-.925-3.525,3.244,3.244,0,0,0-2.8-1.263,3.886,3.886,0,0,0-1.65.325,3.088,3.088,0,0,0-1.169.938,4.164,4.164,0,0,0-.7,1.506,8.074,8.074,0,0,0-.231,2.019,8,8,0,0,0,.231,2.013,4.1,4.1,0,0,0,.7,1.494,3.112,3.112,0,0,0,1.169.931A3.886,3.886,0,0,0,64.188-1.562ZM72.962,0V-12.663h1.325a.567.567,0,0,1,.6.462l.175,1.375A7.117,7.117,0,0,1,76.906-12.3a4.8,4.8,0,0,1,2.356-.562,4.572,4.572,0,0,1,1.831.344,3.543,3.543,0,0,1,1.325.975,4.306,4.306,0,0,1,.806,1.519A6.61,6.61,0,0,1,83.5-8.063V0H81.275V-8.063a3.408,3.408,0,0,0-.656-2.231,2.453,2.453,0,0,0-2.006-.794,3.74,3.74,0,0,0-1.844.475,6.072,6.072,0,0,0-1.581,1.287V0Z" transform="translate(935 646)" fill="#fff"/><path d="M-49.013,0H-51.45V-8.15H-61.1V0h-2.437V-17.913H-61.1v7.988h9.65v-7.988h2.438Zm6.5-12.663V0h-2.225V-12.663Zm.5-3.975a1.416,1.416,0,0,1-.131.606,1.746,1.746,0,0,1-.35.5,1.626,1.626,0,0,1-.506.344,1.519,1.519,0,0,1-.612.125,1.476,1.476,0,0,1-.606-.125,1.648,1.648,0,0,1-.5-.344,1.648,1.648,0,0,1-.344-.5,1.476,1.476,0,0,1-.125-.606,1.564,1.564,0,0,1,.125-.619,1.606,1.606,0,0,1,.344-.513,1.648,1.648,0,0,1,.5-.344,1.476,1.476,0,0,1,.606-.125,1.519,1.519,0,0,1,.612.125,1.626,1.626,0,0,1,.506.344,1.7,1.7,0,0,1,.35.513A1.5,1.5,0,0,1-42.013-16.638ZM-38.513,0V-18.413h2.237v7.575a6.469,6.469,0,0,1,1.806-1.469,4.785,4.785,0,0,1,2.331-.556,4.66,4.66,0,0,1,1.987.412,4.015,4.015,0,0,1,1.513,1.231,5.939,5.939,0,0,1,.962,2.025,10.356,10.356,0,0,1,.337,2.781,8.737,8.737,0,0,1-.375,2.606,6.28,6.28,0,0,1-1.081,2.088A5.082,5.082,0,0,1-30.519-.331a5.084,5.084,0,0,1-2.294.506A4.234,4.234,0,0,1-34.894-.3a4.734,4.734,0,0,1-1.494-1.325L-36.5-.475A.535.535,0,0,1-37.075,0Zm5.65-11.088a3.584,3.584,0,0,0-1.906.5,5.5,5.5,0,0,0-1.506,1.413V-3.05a3.487,3.487,0,0,0,1.331,1.163,3.847,3.847,0,0,0,1.631.337,3.2,3.2,0,0,0,2.725-1.262,5.9,5.9,0,0,0,.95-3.6,8.983,8.983,0,0,0-.219-2.125,4.155,4.155,0,0,0-.631-1.456,2.456,2.456,0,0,0-1.012-.831A3.368,3.368,0,0,0-32.863-11.088ZM-19.6-12.863a5.652,5.652,0,0,1,2.1.381,4.714,4.714,0,0,1,1.663,1.1,5.015,5.015,0,0,1,1.094,1.775A6.858,6.858,0,0,1-14.35-7.2a1.451,1.451,0,0,1-.113.7.467.467,0,0,1-.425.175h-8.425a6.991,6.991,0,0,0,.325,2.088,4.268,4.268,0,0,0,.825,1.481,3.305,3.305,0,0,0,1.25.888,4.293,4.293,0,0,0,1.625.294,4.767,4.767,0,0,0,1.444-.194A6.869,6.869,0,0,0-16.8-2.188a7.962,7.962,0,0,0,.731-.419.969.969,0,0,1,.506-.194.49.49,0,0,1,.425.213l.625.813a4.226,4.226,0,0,1-.988.869A6.149,6.149,0,0,1-16.731-.3a7.82,7.82,0,0,1-1.356.356,8.284,8.284,0,0,1-1.387.119,6.439,6.439,0,0,1-2.419-.444,5.309,5.309,0,0,1-1.913-1.3,5.964,5.964,0,0,1-1.256-2.119,8.616,8.616,0,0,1-.45-2.9,7.378,7.378,0,0,1,.406-2.475,5.834,5.834,0,0,1,1.169-1.994,5.38,5.38,0,0,1,1.862-1.325A6.114,6.114,0,0,1-19.6-12.863Zm.05,1.637a3.416,3.416,0,0,0-2.538.931,4.383,4.383,0,0,0-1.15,2.581h6.888a4.505,4.505,0,0,0-.213-1.419,3.161,3.161,0,0,0-.625-1.113,2.8,2.8,0,0,0-1.006-.725A3.394,3.394,0,0,0-19.55-11.225ZM-11.513,0V-12.663h1.275a.7.7,0,0,1,.5.137.843.843,0,0,1,.188.475l.15,1.975a5.792,5.792,0,0,1,1.606-2.069,3.549,3.549,0,0,1,2.244-.744,3.529,3.529,0,0,1,.95.119,3.311,3.311,0,0,1,.787.331L-4.1-10.775a.376.376,0,0,1-.387.313,1.945,1.945,0,0,1-.538-.119A3.39,3.39,0,0,0-6.038-10.7a2.868,2.868,0,0,0-1.944.675A5.067,5.067,0,0,0-9.288-8.063V0ZM-1.438,0V-12.663H-.113a.567.567,0,0,1,.6.462l.175,1.375A7.117,7.117,0,0,1,2.506-12.3a4.8,4.8,0,0,1,2.356-.562,4.572,4.572,0,0,1,1.831.344,3.543,3.543,0,0,1,1.325.975,4.306,4.306,0,0,1,.806,1.519A6.609,6.609,0,0,1,9.1-8.063V0H6.875V-8.063a3.408,3.408,0,0,0-.656-2.231,2.453,2.453,0,0,0-2.006-.794,3.74,3.74,0,0,0-1.844.475A6.072,6.072,0,0,0,.787-9.325V0Zm23.2,0h-.987a1.179,1.179,0,0,1-.525-.1.553.553,0,0,1-.263-.425L19.737-1.7q-.5.45-.975.806a5.58,5.58,0,0,1-1,.6,5.182,5.182,0,0,1-1.119.369A6.416,6.416,0,0,1,15.325.2a4.488,4.488,0,0,1-1.381-.207,3.145,3.145,0,0,1-1.119-.621,2.956,2.956,0,0,1-.756-1.047,3.671,3.671,0,0,1-.281-1.5A2.8,2.8,0,0,1,12.2-4.623a3.63,3.63,0,0,1,1.331-1.236,8.654,8.654,0,0,1,2.406-.884,16.375,16.375,0,0,1,3.637-.345v-.994a3.445,3.445,0,0,0-.631-2.245,2.288,2.288,0,0,0-1.869-.761,3.962,3.962,0,0,0-1.369.206,5.181,5.181,0,0,0-.963.462q-.406.256-.7.463a1.01,1.01,0,0,1-.581.206.667.667,0,0,1-.394-.119.9.9,0,0,1-.269-.294l-.4-.713a7.231,7.231,0,0,1,2.263-1.512,6.986,6.986,0,0,1,2.687-.5,4.8,4.8,0,0,1,1.888.35,3.871,3.871,0,0,1,1.387.975,4.129,4.129,0,0,1,.85,1.513,6.3,6.3,0,0,1,.287,1.95ZM15.987-1.363a4.542,4.542,0,0,0,1.075-.119,4.243,4.243,0,0,0,.919-.337,4.869,4.869,0,0,0,.825-.531,7.148,7.148,0,0,0,.769-.712V-5.675a14.919,14.919,0,0,0-2.612.195,7.3,7.3,0,0,0-1.75.509,2.439,2.439,0,0,0-.981.742,1.6,1.6,0,0,0-.306.955,2.119,2.119,0,0,0,.163.868,1.644,1.644,0,0,0,.438.6,1.723,1.723,0,0,0,.65.339A2.955,2.955,0,0,0,15.987-1.363ZM28.975.2a3.053,3.053,0,0,1-2.306-.838,3.342,3.342,0,0,1-.806-2.413V-10.8H24.337A.5.5,0,0,1,24-10.919a.461.461,0,0,1-.138-.369v-.887l2.075-.263.513-3.912a.473.473,0,0,1,.162-.306.516.516,0,0,1,.35-.119h1.125v4.362h3.625V-10.8H28.088v7.6a1.617,1.617,0,0,0,.387,1.187,1.353,1.353,0,0,0,1,.388,1.765,1.765,0,0,0,.606-.094,2.6,2.6,0,0,0,.444-.206q.188-.112.319-.206a.417.417,0,0,1,.231-.094.383.383,0,0,1,.313.212l.65,1.063a4.145,4.145,0,0,1-1.387.844A4.711,4.711,0,0,1,28.975.2Zm7.962-12.863V0H34.712V-12.663Zm.5-3.975a1.416,1.416,0,0,1-.131.606,1.746,1.746,0,0,1-.35.5,1.626,1.626,0,0,1-.506.344,1.519,1.519,0,0,1-.612.125,1.476,1.476,0,0,1-.606-.125,1.648,1.648,0,0,1-.5-.344,1.648,1.648,0,0,1-.344-.5,1.476,1.476,0,0,1-.125-.606,1.564,1.564,0,0,1,.125-.619,1.606,1.606,0,0,1,.344-.513,1.648,1.648,0,0,1,.5-.344,1.476,1.476,0,0,1,.606-.125,1.519,1.519,0,0,1,.612.125,1.626,1.626,0,0,1,.506.344,1.7,1.7,0,0,1,.35.513A1.5,1.5,0,0,1,37.437-16.638ZM40.862,0V-12.663h1.325a.567.567,0,0,1,.6.462l.175,1.375A7.117,7.117,0,0,1,44.806-12.3a4.8,4.8,0,0,1,2.356-.562,4.572,4.572,0,0,1,1.831.344,3.543,3.543,0,0,1,1.325.975,4.306,4.306,0,0,1,.806,1.519A6.609,6.609,0,0,1,51.4-8.063V0H49.175V-8.063a3.408,3.408,0,0,0-.656-2.231,2.453,2.453,0,0,0-2.006-.794,3.74,3.74,0,0,0-1.844.475,6.072,6.072,0,0,0-1.581,1.287V0ZM59.025-12.875a6.3,6.3,0,0,1,1.544.181,4.856,4.856,0,0,1,1.306.531h3.438v.825q0,.413-.525.525l-1.438.2A3.85,3.85,0,0,1,63.775-8.8a3.9,3.9,0,0,1-.356,1.681,3.814,3.814,0,0,1-.987,1.294,4.432,4.432,0,0,1-1.5.825,6.037,6.037,0,0,1-1.906.287,6.406,6.406,0,0,1-1.675-.213,2.129,2.129,0,0,0-.606.556,1.021,1.021,0,0,0-.206.582.79.79,0,0,0,.363.7,2.523,2.523,0,0,0,.962.342,8.077,8.077,0,0,0,1.362.1h1.556a8.651,8.651,0,0,1,1.556.139,4.721,4.721,0,0,1,1.362.456,2.543,2.543,0,0,1,.962.873A2.6,2.6,0,0,1,65.025.273a3.382,3.382,0,0,1-.406,1.594A4.3,4.3,0,0,1,63.45,3.24a6,6,0,0,1-1.862.962,7.967,7.967,0,0,1-2.488.361,9.588,9.588,0,0,1-2.431-.275,5.683,5.683,0,0,1-1.731-.738,3.216,3.216,0,0,1-1.031-1.07,2.541,2.541,0,0,1-.344-1.27,2.3,2.3,0,0,1,.594-1.6,4.072,4.072,0,0,1,1.631-1.045,2.236,2.236,0,0,1-.856-.668,1.8,1.8,0,0,1-.319-1.117,1.756,1.756,0,0,1,.1-.568,2.231,2.231,0,0,1,.306-.58,3.258,3.258,0,0,1,.506-.549,3.289,3.289,0,0,1,.7-.462,3.94,3.94,0,0,1-1.469-1.394A3.816,3.816,0,0,1,54.225-8.8a3.9,3.9,0,0,1,.356-1.681,3.718,3.718,0,0,1,.994-1.288,4.545,4.545,0,0,1,1.519-.819A6.2,6.2,0,0,1,59.025-12.875ZM62.975.643a1.122,1.122,0,0,0-.262-.778A1.691,1.691,0,0,0,62-.588a5.083,5.083,0,0,0-1.037-.236A9.592,9.592,0,0,0,59.725-.9H58.4a4.826,4.826,0,0,1-1.288-.169,3.655,3.655,0,0,0-1.156.826A1.672,1.672,0,0,0,55.513.922a1.533,1.533,0,0,0,.219.795,1.865,1.865,0,0,0,.669.638,3.913,3.913,0,0,0,1.131.426,7.244,7.244,0,0,0,1.606.157,7.143,7.143,0,0,0,1.612-.166A4,4,0,0,0,61.956,2.3a2.29,2.29,0,0,0,.756-.727A1.724,1.724,0,0,0,62.975.643Zm-3.95-6.83a3.5,3.5,0,0,0,1.194-.187,2.413,2.413,0,0,0,.869-.525,2.148,2.148,0,0,0,.525-.806,2.927,2.927,0,0,0,.175-1.031,2.463,2.463,0,0,0-.706-1.85,2.832,2.832,0,0,0-2.056-.687,2.813,2.813,0,0,0-2.044.688,2.463,2.463,0,0,0-.706,1.85,2.837,2.837,0,0,0,.181,1.031,2.214,2.214,0,0,0,.531.806,2.422,2.422,0,0,0,.862.525A3.408,3.408,0,0,0,59.025-6.188Z" transform="translate(628 880)" fill="#fff"/><path d="M-21.887,0h-1.875a.807.807,0,0,1-.525-.163,1,1,0,0,1-.3-.413L-26.262-4.9H-34.3L-35.975-.575a.977.977,0,0,1-.3.4A.8.8,0,0,1-36.8,0h-1.875l7.163-17.913h2.462ZM-33.625-6.65h6.688l-2.813-7.287a13.62,13.62,0,0,1-.537-1.687q-.138.512-.269.944t-.256.756ZM-16.137.2a3.053,3.053,0,0,1-2.306-.838A3.342,3.342,0,0,1-19.25-3.05V-10.8h-1.525a.5.5,0,0,1-.337-.119.461.461,0,0,1-.138-.369v-.887l2.075-.263.513-3.912a.473.473,0,0,1,.162-.306.516.516,0,0,1,.35-.119h1.125v4.362H-13.4V-10.8h-3.625v7.6a1.617,1.617,0,0,0,.387,1.187,1.353,1.353,0,0,0,1,.388,1.765,1.765,0,0,0,.606-.094,2.6,2.6,0,0,0,.444-.206q.188-.112.319-.206a.417.417,0,0,1,.231-.094.383.383,0,0,1,.313.212l.65,1.063a4.145,4.145,0,0,1-1.388.844A4.711,4.711,0,0,1-16.137.2ZM-2.812-7.475V0H-5.225V-17.913H-.162a11.062,11.062,0,0,1,2.937.344,5.606,5.606,0,0,1,2.044.994,3.979,3.979,0,0,1,1.194,1.569A5.243,5.243,0,0,1,6.4-12.95a5.155,5.155,0,0,1-.3,1.775,4.688,4.688,0,0,1-.869,1.481A5.2,5.2,0,0,1,3.844-8.575a6.869,6.869,0,0,1-1.856.7,2.561,2.561,0,0,1,.8.763L8.013,0H5.863a1.06,1.06,0,0,1-.975-.512l-4.65-6.4a1.354,1.354,0,0,0-.463-.431,1.668,1.668,0,0,0-.75-.131Zm0-1.762H-.275a6.178,6.178,0,0,0,1.869-.256,3.8,3.8,0,0,0,1.35-.725,3.007,3.007,0,0,0,.819-1.119,3.653,3.653,0,0,0,.275-1.437,2.855,2.855,0,0,0-1.056-2.412A5.1,5.1,0,0,0-.162-16h-2.65ZM12.75-12.663V0H10.525V-12.663Zm.5-3.975a1.416,1.416,0,0,1-.131.606,1.746,1.746,0,0,1-.35.5,1.626,1.626,0,0,1-.506.344,1.519,1.519,0,0,1-.613.125,1.476,1.476,0,0,1-.606-.125,1.648,1.648,0,0,1-.5-.344,1.648,1.648,0,0,1-.344-.5,1.476,1.476,0,0,1-.125-.606,1.564,1.564,0,0,1,.125-.619,1.606,1.606,0,0,1,.344-.513,1.648,1.648,0,0,1,.5-.344,1.476,1.476,0,0,1,.606-.125,1.519,1.519,0,0,1,.613.125,1.626,1.626,0,0,1,.506.344,1.7,1.7,0,0,1,.35.513A1.5,1.5,0,0,1,13.25-16.638Zm10.675,6.063a.493.493,0,0,1-.463.275.87.87,0,0,1-.425-.137q-.237-.137-.581-.306a5.459,5.459,0,0,0-.819-.312,3.906,3.906,0,0,0-1.125-.144,3.32,3.32,0,0,0-1.013.144,2.431,2.431,0,0,0-.769.394,1.742,1.742,0,0,0-.488.581,1.561,1.561,0,0,0-.169.719,1.2,1.2,0,0,0,.281.813,2.444,2.444,0,0,0,.744.562,6.484,6.484,0,0,0,1.05.419q.587.181,1.206.388t1.206.456a4.377,4.377,0,0,1,1.05.625,2.859,2.859,0,0,1,.744.919,2.812,2.812,0,0,1,.281,1.306,4.137,4.137,0,0,1-.312,1.619A3.532,3.532,0,0,1,23.4-.969a4.46,4.46,0,0,1-1.5.856A6.163,6.163,0,0,1,19.85.2a6.4,6.4,0,0,1-2.4-.431,6.081,6.081,0,0,1-1.825-1.106l.525-.85a.763.763,0,0,1,.238-.25.667.667,0,0,1,.362-.088.838.838,0,0,1,.475.175q.25.175.606.388a4.665,4.665,0,0,0,.862.388,3.931,3.931,0,0,0,1.269.175A3.478,3.478,0,0,0,21.1-1.569a2.389,2.389,0,0,0,.813-.456,1.807,1.807,0,0,0,.481-.662,2.059,2.059,0,0,0,.156-.8,1.327,1.327,0,0,0-.281-.869,2.374,2.374,0,0,0-.744-.587,6.061,6.061,0,0,0-1.056-.425q-.594-.181-1.212-.381t-1.212-.456a4.262,4.262,0,0,1-1.056-.644,2.916,2.916,0,0,1-.744-.956,3.092,3.092,0,0,1-.281-1.381,3.369,3.369,0,0,1,.3-1.394,3.418,3.418,0,0,1,.875-1.175,4.309,4.309,0,0,1,1.413-.806,5.653,5.653,0,0,1,1.912-.3,6.049,6.049,0,0,1,2.244.394,5.31,5.31,0,0,1,1.719,1.081Zm5.912-7.838V-7.575h.575a1.066,1.066,0,0,0,.413-.069,1.154,1.154,0,0,0,.362-.281l4-4.288a2.174,2.174,0,0,1,.375-.325.889.889,0,0,1,.5-.125h2.025L33.425-7.7a4.431,4.431,0,0,1-.344.375,2.032,2.032,0,0,1-.381.287,2.3,2.3,0,0,1,.406.344,3.2,3.2,0,0,1,.344.444L38.4,0h-2a.962.962,0,0,1-.469-.106,1.225,1.225,0,0,1-.369-.331L31.4-5.625a.972.972,0,0,0-.375-.344,1.485,1.485,0,0,0-.562-.081h-.625V0H27.6V-18.413Z" transform="translate(628 567)" fill="#fff"/><path d="M-49.675-8.95a10.087,10.087,0,0,1-.638,3.662,8.122,8.122,0,0,1-1.8,2.825A8.025,8.025,0,0,1-54.9-.644,9.7,9.7,0,0,1-58.5,0h-6.7V-17.913h6.7a9.7,9.7,0,0,1,3.6.644,7.981,7.981,0,0,1,2.788,1.825,8.188,8.188,0,0,1,1.8,2.831A10.087,10.087,0,0,1-49.675-8.95Zm-2.487,0a8.99,8.99,0,0,0-.45-2.95,6.217,6.217,0,0,0-1.275-2.2,5.438,5.438,0,0,0-2-1.375A6.912,6.912,0,0,0-58.5-15.95h-4.263V-1.963H-58.5a6.912,6.912,0,0,0,2.612-.475,5.473,5.473,0,0,0,2-1.369A6.153,6.153,0,0,0-52.612-6,8.99,8.99,0,0,0-52.162-8.95ZM-41.6-12.863a6.5,6.5,0,0,1,2.506.462,5.285,5.285,0,0,1,1.9,1.313,5.81,5.81,0,0,1,1.2,2.056,8.176,8.176,0,0,1,.419,2.694,8.161,8.161,0,0,1-.419,2.7,5.819,5.819,0,0,1-1.2,2.05,5.218,5.218,0,0,1-1.9,1.306A6.582,6.582,0,0,1-41.6.175a6.582,6.582,0,0,1-2.506-.456,5.278,5.278,0,0,1-1.906-1.306,5.844,5.844,0,0,1-1.212-2.05,8.052,8.052,0,0,1-.425-2.7,8.066,8.066,0,0,1,.425-2.694,5.835,5.835,0,0,1,1.212-2.056A5.345,5.345,0,0,1-44.106-12.4,6.5,6.5,0,0,1-41.6-12.863Zm0,11.3a3.251,3.251,0,0,0,2.8-1.256,5.817,5.817,0,0,0,.925-3.506A5.87,5.87,0,0,0-38.8-9.85a3.244,3.244,0,0,0-2.8-1.263,3.886,3.886,0,0,0-1.65.325,3.088,3.088,0,0,0-1.169.938,4.164,4.164,0,0,0-.7,1.506,8.074,8.074,0,0,0-.231,2.019,8,8,0,0,0,.231,2.013,4.1,4.1,0,0,0,.7,1.494,3.113,3.113,0,0,0,1.169.931A3.886,3.886,0,0,0-41.6-1.562Zm15.2-16.35a1.088,1.088,0,0,1,.481.081,1.245,1.245,0,0,1,.356.331L-15.187-4q-.038-.325-.05-.631t-.013-.594V-17.913h2.125V0H-14.35a1.042,1.042,0,0,1-.481-.1,1.215,1.215,0,0,1-.381-.337L-25.575-13.925q.025.312.038.613t.012.55V0H-27.65V-17.913Zm22.425,5.05a6.5,6.5,0,0,1,2.506.462,5.285,5.285,0,0,1,1.9,1.313,5.81,5.81,0,0,1,1.2,2.056A8.176,8.176,0,0,1,2.05-6.338a8.161,8.161,0,0,1-.419,2.7,5.819,5.819,0,0,1-1.2,2.05,5.218,5.218,0,0,1-1.9,1.306A6.582,6.582,0,0,1-3.975.175,6.582,6.582,0,0,1-6.481-.281,5.278,5.278,0,0,1-8.387-1.588,5.844,5.844,0,0,1-9.6-3.638a8.052,8.052,0,0,1-.425-2.7A8.066,8.066,0,0,1-9.6-9.031a5.835,5.835,0,0,1,1.213-2.056A5.345,5.345,0,0,1-6.481-12.4,6.5,6.5,0,0,1-3.975-12.863Zm0,11.3a3.251,3.251,0,0,0,2.8-1.256A5.817,5.817,0,0,0-.25-6.325,5.87,5.87,0,0,0-1.175-9.85a3.244,3.244,0,0,0-2.8-1.263,3.886,3.886,0,0,0-1.65.325,3.088,3.088,0,0,0-1.169.938,4.164,4.164,0,0,0-.7,1.506,8.074,8.074,0,0,0-.231,2.019,8,8,0,0,0,.231,2.013,4.1,4.1,0,0,0,.7,1.494,3.113,3.113,0,0,0,1.169.931A3.886,3.886,0,0,0-3.975-1.562ZM8.638.2A3.053,3.053,0,0,1,6.331-.638,3.342,3.342,0,0,1,5.525-3.05V-10.8H4a.5.5,0,0,1-.338-.119.462.462,0,0,1-.137-.369v-.887L5.6-12.438l.513-3.912a.473.473,0,0,1,.162-.306.516.516,0,0,1,.35-.119H7.75v4.362h3.625V-10.8H7.75v7.6a1.617,1.617,0,0,0,.387,1.187,1.353,1.353,0,0,0,1,.388,1.765,1.765,0,0,0,.606-.094,2.6,2.6,0,0,0,.444-.206q.188-.112.319-.206a.417.417,0,0,1,.231-.094.383.383,0,0,1,.313.212L11.7-.95a4.145,4.145,0,0,1-1.388.844A4.711,4.711,0,0,1,8.638.2ZM21.725-2.038h7.75V0H19.3V-17.913h2.425Zm14.75-10.825a6.5,6.5,0,0,1,2.506.462,5.285,5.285,0,0,1,1.9,1.313,5.81,5.81,0,0,1,1.2,2.056A8.176,8.176,0,0,1,42.5-6.338a8.161,8.161,0,0,1-.419,2.7,5.819,5.819,0,0,1-1.2,2.05,5.218,5.218,0,0,1-1.9,1.306,6.582,6.582,0,0,1-2.506.456,6.582,6.582,0,0,1-2.506-.456,5.278,5.278,0,0,1-1.906-1.306,5.844,5.844,0,0,1-1.212-2.05,8.052,8.052,0,0,1-.425-2.7,8.066,8.066,0,0,1,.425-2.694,5.835,5.835,0,0,1,1.212-2.056A5.345,5.345,0,0,1,33.969-12.4,6.5,6.5,0,0,1,36.475-12.863Zm0,11.3a3.251,3.251,0,0,0,2.8-1.256A5.817,5.817,0,0,0,40.2-6.325a5.87,5.87,0,0,0-.925-3.525,3.244,3.244,0,0,0-2.8-1.263,3.886,3.886,0,0,0-1.65.325,3.088,3.088,0,0,0-1.169.938,4.164,4.164,0,0,0-.7,1.506,8.074,8.074,0,0,0-.231,2.019,8,8,0,0,0,.231,2.013,4.1,4.1,0,0,0,.7,1.494,3.112,3.112,0,0,0,1.169.931A3.886,3.886,0,0,0,36.475-1.562ZM52.5-10.575a.493.493,0,0,1-.463.275.87.87,0,0,1-.425-.137q-.237-.137-.581-.306a5.459,5.459,0,0,0-.819-.312,3.906,3.906,0,0,0-1.125-.144,3.32,3.32,0,0,0-1.012.144,2.431,2.431,0,0,0-.769.394,1.742,1.742,0,0,0-.487.581,1.561,1.561,0,0,0-.169.719,1.2,1.2,0,0,0,.281.813,2.444,2.444,0,0,0,.744.562,6.484,6.484,0,0,0,1.05.419q.587.181,1.206.388t1.206.456a4.377,4.377,0,0,1,1.05.625,2.859,2.859,0,0,1,.744.919,2.812,2.812,0,0,1,.281,1.306A4.137,4.137,0,0,1,52.9-2.256a3.532,3.532,0,0,1-.925,1.288,4.46,4.46,0,0,1-1.5.856A6.163,6.163,0,0,1,48.425.2a6.4,6.4,0,0,1-2.4-.431A6.081,6.081,0,0,1,44.2-1.338l.525-.85a.763.763,0,0,1,.237-.25.667.667,0,0,1,.363-.088.838.838,0,0,1,.475.175q.25.175.606.388a4.665,4.665,0,0,0,.862.388,3.931,3.931,0,0,0,1.269.175,3.478,3.478,0,0,0,1.138-.169,2.389,2.389,0,0,0,.813-.456,1.807,1.807,0,0,0,.481-.662,2.059,2.059,0,0,0,.156-.8,1.327,1.327,0,0,0-.281-.869,2.374,2.374,0,0,0-.744-.587,6.061,6.061,0,0,0-1.056-.425q-.594-.181-1.213-.381t-1.213-.456a4.262,4.262,0,0,1-1.056-.644,2.916,2.916,0,0,1-.744-.956,3.092,3.092,0,0,1-.281-1.381,3.369,3.369,0,0,1,.3-1.394,3.418,3.418,0,0,1,.875-1.175,4.309,4.309,0,0,1,1.413-.806,5.653,5.653,0,0,1,1.912-.3,6.049,6.049,0,0,1,2.244.394A5.31,5.31,0,0,1,53-11.388Zm8.612-2.288a5.652,5.652,0,0,1,2.1.381,4.714,4.714,0,0,1,1.662,1.1,5.015,5.015,0,0,1,1.094,1.775A6.857,6.857,0,0,1,66.363-7.2a1.451,1.451,0,0,1-.113.7.467.467,0,0,1-.425.175H57.4a6.991,6.991,0,0,0,.325,2.088,4.268,4.268,0,0,0,.825,1.481,3.305,3.305,0,0,0,1.25.888,4.293,4.293,0,0,0,1.625.294,4.767,4.767,0,0,0,1.444-.194,6.869,6.869,0,0,0,1.044-.419,7.963,7.963,0,0,0,.731-.419A.969.969,0,0,1,65.15-2.8a.49.49,0,0,1,.425.213l.625.813a4.226,4.226,0,0,1-.988.869A6.148,6.148,0,0,1,63.981-.3a7.82,7.82,0,0,1-1.356.356,8.284,8.284,0,0,1-1.387.119,6.439,6.439,0,0,1-2.419-.444,5.309,5.309,0,0,1-1.913-1.3A5.964,5.964,0,0,1,55.65-3.688a8.616,8.616,0,0,1-.45-2.9,7.378,7.378,0,0,1,.406-2.475,5.834,5.834,0,0,1,1.169-1.994,5.38,5.38,0,0,1,1.862-1.325A6.114,6.114,0,0,1,61.113-12.863Zm.05,1.637a3.416,3.416,0,0,0-2.538.931,4.383,4.383,0,0,0-1.15,2.581h6.888a4.505,4.505,0,0,0-.213-1.419,3.161,3.161,0,0,0-.625-1.113,2.8,2.8,0,0,0-1.006-.725A3.394,3.394,0,0,0,61.163-11.225Z" transform="translate(628 333)" fill="#fff"/><path d="M-46.738-3.7a.5.5,0,0,1,.363.162l.95,1.038A7.663,7.663,0,0,1-48.094-.512,9.1,9.1,0,0,1-51.875.2a8.9,8.9,0,0,1-3.513-.669,7.7,7.7,0,0,1-2.687-1.875A8.476,8.476,0,0,1-59.8-5.238a10.81,10.81,0,0,1-.612-3.712,10.16,10.16,0,0,1,.656-3.713,8.483,8.483,0,0,1,1.844-2.9,8.251,8.251,0,0,1,2.844-1.881,9.68,9.68,0,0,1,3.656-.669,8.622,8.622,0,0,1,3.406.612,8.608,8.608,0,0,1,2.544,1.663l-.787,1.112a.858.858,0,0,1-.2.206.55.55,0,0,1-.325.081.633.633,0,0,1-.344-.119q-.181-.119-.431-.294t-.587-.375a5.149,5.149,0,0,0-.8-.375,6.61,6.61,0,0,0-1.075-.294,7.483,7.483,0,0,0-1.413-.119,6.82,6.82,0,0,0-2.631.494,5.892,5.892,0,0,0-2.056,1.406,6.4,6.4,0,0,0-1.344,2.225,8.485,8.485,0,0,0-.481,2.938,8.642,8.642,0,0,0,.481,2.987,6.6,6.6,0,0,0,1.313,2.219,5.534,5.534,0,0,0,1.969,1.381,6.294,6.294,0,0,0,2.45.475,9.949,9.949,0,0,0,1.438-.094,5.9,5.9,0,0,0,1.181-.294,5,5,0,0,0,1.013-.506,7.919,7.919,0,0,0,.944-.731A.635.635,0,0,1-46.738-3.7Zm4.15,3.7V-18.413h2.225v7.45a6.833,6.833,0,0,1,1.8-1.381,4.82,4.82,0,0,1,2.275-.519,4.572,4.572,0,0,1,1.831.344,3.543,3.543,0,0,1,1.325.975,4.306,4.306,0,0,1,.806,1.519,6.609,6.609,0,0,1,.275,1.962V0h-2.225V-8.063a3.408,3.408,0,0,0-.656-2.231,2.453,2.453,0,0,0-2.006-.794,3.74,3.74,0,0,0-1.844.475,6.072,6.072,0,0,0-1.581,1.287V0Zm23.2,0h-.987A1.179,1.179,0,0,1-20.9-.1a.553.553,0,0,1-.263-.425l-.25-1.175q-.5.45-.975.806a5.58,5.58,0,0,1-1,.6,5.182,5.182,0,0,1-1.119.369A6.416,6.416,0,0,1-25.825.2a4.488,4.488,0,0,1-1.381-.207,3.145,3.145,0,0,1-1.119-.621,2.956,2.956,0,0,1-.756-1.047,3.671,3.671,0,0,1-.281-1.5,2.8,2.8,0,0,1,.413-1.449,3.63,3.63,0,0,1,1.331-1.236,8.654,8.654,0,0,1,2.406-.884,16.375,16.375,0,0,1,3.638-.345v-.994a3.445,3.445,0,0,0-.631-2.245,2.288,2.288,0,0,0-1.869-.761,3.962,3.962,0,0,0-1.369.206,5.181,5.181,0,0,0-.962.462q-.406.256-.7.463a1.01,1.01,0,0,1-.581.206.667.667,0,0,1-.394-.119.9.9,0,0,1-.269-.294l-.4-.713a7.231,7.231,0,0,1,2.263-1.512,6.986,6.986,0,0,1,2.687-.5,4.8,4.8,0,0,1,1.888.35,3.871,3.871,0,0,1,1.387.975,4.129,4.129,0,0,1,.85,1.513,6.3,6.3,0,0,1,.287,1.95Zm-5.775-1.363a4.542,4.542,0,0,0,1.075-.119,4.243,4.243,0,0,0,.919-.337,4.869,4.869,0,0,0,.825-.531,7.148,7.148,0,0,0,.769-.712V-5.675a14.919,14.919,0,0,0-2.612.195,7.3,7.3,0,0,0-1.75.509,2.439,2.439,0,0,0-.981.742,1.6,1.6,0,0,0-.306.955,2.119,2.119,0,0,0,.163.868,1.644,1.644,0,0,0,.438.6,1.723,1.723,0,0,0,.65.339A2.955,2.955,0,0,0-25.163-1.363ZM-16.013,0V-12.663h1.325a.567.567,0,0,1,.6.462l.163,1.3a6.5,6.5,0,0,1,1.569-1.413,3.693,3.693,0,0,1,2.019-.55,3,3,0,0,1,2.081.712,4.008,4.008,0,0,1,1.144,1.925,3.963,3.963,0,0,1,.694-1.187,4.03,4.03,0,0,1,.969-.825,4.1,4.1,0,0,1,1.144-.475,5.108,5.108,0,0,1,1.231-.15,4.683,4.683,0,0,1,1.781.319,3.527,3.527,0,0,1,1.325.931,4.148,4.148,0,0,1,.831,1.506A6.67,6.67,0,0,1,1.15-8.063V0H-1.075V-8.063a3.413,3.413,0,0,0-.65-2.256,2.334,2.334,0,0,0-1.888-.769,2.832,2.832,0,0,0-1.044.194,2.515,2.515,0,0,0-.869.569,2.666,2.666,0,0,0-.594.944,3.66,3.66,0,0,0-.219,1.319V0H-8.563V-8.063a3.548,3.548,0,0,0-.613-2.275,2.174,2.174,0,0,0-1.788-.75,2.824,2.824,0,0,0-1.531.444,5.013,5.013,0,0,0-1.294,1.206V0ZM4.512,4.288v-16.95H5.837a.567.567,0,0,1,.6.462l.188,1.5a6.76,6.76,0,0,1,1.856-1.587,4.742,4.742,0,0,1,2.406-.6,4.571,4.571,0,0,1,1.975.419,4.072,4.072,0,0,1,1.513,1.238A5.935,5.935,0,0,1,15.337-9.2a10.426,10.426,0,0,1,.337,2.788A8.737,8.737,0,0,1,15.3-3.806a6.347,6.347,0,0,1-1.075,2.088A5.02,5.02,0,0,1,12.506-.331a5.084,5.084,0,0,1-2.294.506A4.721,4.721,0,0,1,8.206-.213a4.521,4.521,0,0,1-1.469-1.1v5.6ZM10.15-11.088a3.584,3.584,0,0,0-1.906.5A5.5,5.5,0,0,0,6.737-9.175V-3.05A3.578,3.578,0,0,0,8.081-1.888a3.847,3.847,0,0,0,1.631.337,3.192,3.192,0,0,0,2.712-1.262,5.9,5.9,0,0,0,.95-3.6,8.983,8.983,0,0,0-.219-2.125,4.155,4.155,0,0,0-.631-1.456,2.456,2.456,0,0,0-1.012-.831A3.368,3.368,0,0,0,10.15-11.088Zm10.638-1.575V0H18.563V-12.663Zm.5-3.975a1.416,1.416,0,0,1-.131.606,1.746,1.746,0,0,1-.35.5,1.626,1.626,0,0,1-.506.344,1.519,1.519,0,0,1-.612.125,1.476,1.476,0,0,1-.606-.125,1.648,1.648,0,0,1-.5-.344,1.648,1.648,0,0,1-.344-.5,1.476,1.476,0,0,1-.125-.606,1.564,1.564,0,0,1,.125-.619,1.606,1.606,0,0,1,.344-.513,1.648,1.648,0,0,1,.5-.344,1.476,1.476,0,0,1,.606-.125,1.519,1.519,0,0,1,.612.125,1.626,1.626,0,0,1,.506.344,1.7,1.7,0,0,1,.35.513A1.5,1.5,0,0,1,21.287-16.638Zm8.55,3.775a6.5,6.5,0,0,1,2.506.462,5.285,5.285,0,0,1,1.9,1.313,5.81,5.81,0,0,1,1.2,2.056,8.176,8.176,0,0,1,.419,2.694,8.161,8.161,0,0,1-.419,2.7,5.819,5.819,0,0,1-1.2,2.05,5.218,5.218,0,0,1-1.9,1.306,6.582,6.582,0,0,1-2.506.456,6.582,6.582,0,0,1-2.506-.456,5.278,5.278,0,0,1-1.906-1.306,5.844,5.844,0,0,1-1.212-2.05,8.052,8.052,0,0,1-.425-2.7,8.066,8.066,0,0,1,.425-2.694,5.835,5.835,0,0,1,1.212-2.056A5.345,5.345,0,0,1,27.331-12.4,6.5,6.5,0,0,1,29.838-12.863Zm0,11.3a3.251,3.251,0,0,0,2.8-1.256,5.817,5.817,0,0,0,.925-3.506,5.87,5.87,0,0,0-.925-3.525,3.244,3.244,0,0,0-2.8-1.263,3.886,3.886,0,0,0-1.65.325,3.088,3.088,0,0,0-1.169.938,4.164,4.164,0,0,0-.7,1.506,8.074,8.074,0,0,0-.231,2.019,8,8,0,0,0,.231,2.013,4.1,4.1,0,0,0,.7,1.494,3.113,3.113,0,0,0,1.169.931A3.886,3.886,0,0,0,29.838-1.562ZM38.613,0V-12.663h1.325a.567.567,0,0,1,.6.462l.175,1.375A7.117,7.117,0,0,1,42.556-12.3a4.8,4.8,0,0,1,2.356-.562,4.572,4.572,0,0,1,1.831.344,3.543,3.543,0,0,1,1.325.975,4.306,4.306,0,0,1,.806,1.519,6.609,6.609,0,0,1,.275,1.962V0H46.925V-8.063a3.408,3.408,0,0,0-.656-2.231,2.453,2.453,0,0,0-2.006-.794,3.74,3.74,0,0,0-1.844.475,6.072,6.072,0,0,0-1.581,1.287V0Zm21.15-10.575a.493.493,0,0,1-.463.275.87.87,0,0,1-.425-.137q-.237-.137-.581-.306a5.459,5.459,0,0,0-.819-.312A3.906,3.906,0,0,0,56.35-11.2a3.32,3.32,0,0,0-1.012.144,2.431,2.431,0,0,0-.769.394,1.742,1.742,0,0,0-.488.581,1.561,1.561,0,0,0-.169.719,1.2,1.2,0,0,0,.281.813,2.444,2.444,0,0,0,.744.562,6.484,6.484,0,0,0,1.05.419q.587.181,1.206.388t1.206.456a4.377,4.377,0,0,1,1.05.625,2.859,2.859,0,0,1,.744.919,2.812,2.812,0,0,1,.281,1.306,4.137,4.137,0,0,1-.312,1.619,3.532,3.532,0,0,1-.925,1.288,4.46,4.46,0,0,1-1.5.856A6.163,6.163,0,0,1,55.688.2a6.4,6.4,0,0,1-2.4-.431,6.081,6.081,0,0,1-1.825-1.106l.525-.85a.763.763,0,0,1,.237-.25.667.667,0,0,1,.363-.088.838.838,0,0,1,.475.175q.25.175.606.388a4.665,4.665,0,0,0,.862.388A3.931,3.931,0,0,0,55.8-1.4a3.478,3.478,0,0,0,1.138-.169,2.389,2.389,0,0,0,.813-.456,1.807,1.807,0,0,0,.481-.662,2.059,2.059,0,0,0,.156-.8,1.327,1.327,0,0,0-.281-.869,2.374,2.374,0,0,0-.744-.587,6.061,6.061,0,0,0-1.056-.425q-.594-.181-1.213-.381t-1.213-.456a4.262,4.262,0,0,1-1.056-.644,2.916,2.916,0,0,1-.744-.956A3.092,3.092,0,0,1,51.8-9.187a3.369,3.369,0,0,1,.3-1.394,3.418,3.418,0,0,1,.875-1.175,4.309,4.309,0,0,1,1.413-.806,5.653,5.653,0,0,1,1.912-.3,6.049,6.049,0,0,1,2.244.394,5.31,5.31,0,0,1,1.719,1.081Z" transform="translate(1345 411)" fill="#fff"/><path d="M-86.563-2.038h7.75V0H-88.988V-17.913h2.425Zm14.75-10.825a6.5,6.5,0,0,1,2.506.462,5.285,5.285,0,0,1,1.9,1.313,5.81,5.81,0,0,1,1.2,2.056,8.176,8.176,0,0,1,.419,2.694,8.161,8.161,0,0,1-.419,2.7,5.819,5.819,0,0,1-1.2,2.05,5.219,5.219,0,0,1-1.9,1.306,6.582,6.582,0,0,1-2.506.456,6.582,6.582,0,0,1-2.506-.456,5.278,5.278,0,0,1-1.906-1.306,5.844,5.844,0,0,1-1.213-2.05,8.052,8.052,0,0,1-.425-2.7,8.066,8.066,0,0,1,.425-2.694,5.835,5.835,0,0,1,1.213-2.056A5.345,5.345,0,0,1-74.319-12.4,6.5,6.5,0,0,1-71.812-12.863Zm0,11.3a3.251,3.251,0,0,0,2.8-1.256,5.817,5.817,0,0,0,.925-3.506,5.87,5.87,0,0,0-.925-3.525,3.244,3.244,0,0,0-2.8-1.263,3.886,3.886,0,0,0-1.65.325,3.088,3.088,0,0,0-1.169.938,4.164,4.164,0,0,0-.7,1.506,8.074,8.074,0,0,0-.231,2.019,8,8,0,0,0,.231,2.013,4.1,4.1,0,0,0,.7,1.494,3.113,3.113,0,0,0,1.169.931A3.886,3.886,0,0,0-71.812-1.562Zm12.162,5.3a1.165,1.165,0,0,1-.281.4.764.764,0,0,1-.519.15H-62.1l2.313-5.025-5.225-11.925h1.925a.656.656,0,0,1,.45.144.9.9,0,0,1,.237.319l3.388,7.975a5.772,5.772,0,0,1,.194.55q.081.275.144.562.087-.287.175-.562t.2-.563l3.287-7.963a.711.711,0,0,1,.256-.331.658.658,0,0,1,.394-.131h1.775ZM-41.263,0h-.987a1.179,1.179,0,0,1-.525-.1.553.553,0,0,1-.263-.425l-.25-1.175q-.5.45-.975.806a5.58,5.58,0,0,1-1,.6,5.182,5.182,0,0,1-1.119.369A6.416,6.416,0,0,1-47.7.2a4.488,4.488,0,0,1-1.381-.207A3.145,3.145,0,0,1-50.2-.628a2.956,2.956,0,0,1-.756-1.047,3.671,3.671,0,0,1-.281-1.5,2.8,2.8,0,0,1,.412-1.449,3.63,3.63,0,0,1,1.331-1.236,8.654,8.654,0,0,1,2.406-.884,16.375,16.375,0,0,1,3.638-.345v-.994a3.445,3.445,0,0,0-.631-2.245,2.288,2.288,0,0,0-1.869-.761,3.962,3.962,0,0,0-1.369.206,5.181,5.181,0,0,0-.962.462q-.406.256-.7.463a1.01,1.01,0,0,1-.581.206.667.667,0,0,1-.394-.119.9.9,0,0,1-.269-.294l-.4-.713a7.231,7.231,0,0,1,2.263-1.512,6.986,6.986,0,0,1,2.688-.5,4.8,4.8,0,0,1,1.887.35,3.871,3.871,0,0,1,1.388.975,4.129,4.129,0,0,1,.85,1.513,6.3,6.3,0,0,1,.287,1.95Zm-5.775-1.363a4.542,4.542,0,0,0,1.075-.119,4.243,4.243,0,0,0,.919-.337,4.869,4.869,0,0,0,.825-.531,7.147,7.147,0,0,0,.769-.712V-5.675a14.919,14.919,0,0,0-2.612.195,7.3,7.3,0,0,0-1.75.509,2.439,2.439,0,0,0-.981.742,1.6,1.6,0,0,0-.306.955,2.119,2.119,0,0,0,.163.868,1.644,1.644,0,0,0,.438.6,1.723,1.723,0,0,0,.65.339A2.955,2.955,0,0,0-47.038-1.363Zm11.625-17.05V0h-2.225V-18.413ZM-13.688-3.7a.5.5,0,0,1,.363.162l.95,1.038A7.663,7.663,0,0,1-15.044-.512,9.1,9.1,0,0,1-18.825.2a8.9,8.9,0,0,1-3.513-.669,7.7,7.7,0,0,1-2.687-1.875A8.476,8.476,0,0,1-26.75-5.238a10.81,10.81,0,0,1-.612-3.712,10.16,10.16,0,0,1,.656-3.713,8.483,8.483,0,0,1,1.844-2.9,8.251,8.251,0,0,1,2.844-1.881,9.68,9.68,0,0,1,3.656-.669,8.622,8.622,0,0,1,3.406.612,8.608,8.608,0,0,1,2.544,1.663l-.788,1.112a.858.858,0,0,1-.2.206.55.55,0,0,1-.325.081.633.633,0,0,1-.344-.119q-.181-.119-.431-.294t-.588-.375a5.148,5.148,0,0,0-.8-.375,6.61,6.61,0,0,0-1.075-.294,7.483,7.483,0,0,0-1.413-.119,6.82,6.82,0,0,0-2.631.494,5.892,5.892,0,0,0-2.056,1.406,6.4,6.4,0,0,0-1.344,2.225,8.485,8.485,0,0,0-.481,2.938,8.642,8.642,0,0,0,.481,2.987,6.6,6.6,0,0,0,1.313,2.219,5.534,5.534,0,0,0,1.969,1.381,6.294,6.294,0,0,0,2.45.475,9.949,9.949,0,0,0,1.438-.094,5.9,5.9,0,0,0,1.181-.294,5,5,0,0,0,1.012-.506,7.918,7.918,0,0,0,.944-.731A.635.635,0,0,1-13.688-3.7Zm6.075-8.963v8.075A3.36,3.36,0,0,0-6.95-2.363a2.466,2.466,0,0,0,2,.788,3.831,3.831,0,0,0,1.837-.463A5.715,5.715,0,0,0-1.525-3.325v-9.338H.7V0H-.625a.567.567,0,0,1-.6-.463L-1.4-1.825A6.966,6.966,0,0,1-3.25-.356,4.848,4.848,0,0,1-5.6.2,4.572,4.572,0,0,1-7.431-.144a3.631,3.631,0,0,1-1.331-.969,4.114,4.114,0,0,1-.806-1.512,6.752,6.752,0,0,1-.269-1.963v-8.075Zm19.225,2.088a.493.493,0,0,1-.462.275.87.87,0,0,1-.425-.137q-.238-.137-.581-.306a5.459,5.459,0,0,0-.819-.312A3.906,3.906,0,0,0,8.2-11.2a3.32,3.32,0,0,0-1.013.144,2.431,2.431,0,0,0-.769.394,1.742,1.742,0,0,0-.488.581,1.561,1.561,0,0,0-.169.719,1.2,1.2,0,0,0,.281.813,2.444,2.444,0,0,0,.744.562,6.484,6.484,0,0,0,1.05.419q.587.181,1.206.388t1.206.456A4.377,4.377,0,0,1,11.3-6.1a2.859,2.859,0,0,1,.744.919,2.812,2.812,0,0,1,.281,1.306,4.137,4.137,0,0,1-.312,1.619,3.532,3.532,0,0,1-.925,1.288,4.46,4.46,0,0,1-1.5.856A6.163,6.163,0,0,1,7.537.2a6.4,6.4,0,0,1-2.4-.431A6.081,6.081,0,0,1,3.312-1.338l.525-.85a.763.763,0,0,1,.237-.25.667.667,0,0,1,.363-.088.838.838,0,0,1,.475.175q.25.175.606.388a4.665,4.665,0,0,0,.862.388A3.931,3.931,0,0,0,7.65-1.4a3.478,3.478,0,0,0,1.137-.169A2.389,2.389,0,0,0,9.6-2.025a1.807,1.807,0,0,0,.481-.662,2.059,2.059,0,0,0,.156-.8,1.327,1.327,0,0,0-.281-.869,2.374,2.374,0,0,0-.744-.587,6.061,6.061,0,0,0-1.056-.425Q7.562-5.55,6.944-5.75T5.731-6.206A4.262,4.262,0,0,1,4.675-6.85a2.916,2.916,0,0,1-.744-.956A3.092,3.092,0,0,1,3.65-9.187a3.369,3.369,0,0,1,.3-1.394,3.418,3.418,0,0,1,.875-1.175,4.309,4.309,0,0,1,1.412-.806,5.653,5.653,0,0,1,1.913-.3,6.049,6.049,0,0,1,2.244.394,5.31,5.31,0,0,1,1.719,1.081ZM19.05.2a3.053,3.053,0,0,1-2.306-.838,3.342,3.342,0,0,1-.806-2.413V-10.8H14.412a.5.5,0,0,1-.337-.119.462.462,0,0,1-.137-.369v-.887l2.075-.263.513-3.912a.473.473,0,0,1,.162-.306.516.516,0,0,1,.35-.119h1.125v4.362h3.625V-10.8H18.162v7.6a1.617,1.617,0,0,0,.387,1.187,1.353,1.353,0,0,0,1,.388,1.765,1.765,0,0,0,.606-.094,2.6,2.6,0,0,0,.444-.206q.188-.112.319-.206a.417.417,0,0,1,.231-.094.383.383,0,0,1,.313.212l.65,1.063a4.145,4.145,0,0,1-1.388.844A4.711,4.711,0,0,1,19.05.2ZM29.662-12.863a6.5,6.5,0,0,1,2.506.462,5.285,5.285,0,0,1,1.9,1.313,5.81,5.81,0,0,1,1.2,2.056,8.176,8.176,0,0,1,.419,2.694,8.161,8.161,0,0,1-.419,2.7,5.819,5.819,0,0,1-1.2,2.05,5.218,5.218,0,0,1-1.9,1.306,6.582,6.582,0,0,1-2.506.456,6.582,6.582,0,0,1-2.506-.456A5.278,5.278,0,0,1,25.25-1.588a5.844,5.844,0,0,1-1.212-2.05,8.052,8.052,0,0,1-.425-2.7,8.066,8.066,0,0,1,.425-2.694,5.835,5.835,0,0,1,1.212-2.056A5.345,5.345,0,0,1,27.156-12.4,6.5,6.5,0,0,1,29.662-12.863Zm0,11.3a3.251,3.251,0,0,0,2.8-1.256,5.817,5.817,0,0,0,.925-3.506,5.87,5.87,0,0,0-.925-3.525,3.244,3.244,0,0,0-2.8-1.263,3.886,3.886,0,0,0-1.65.325,3.088,3.088,0,0,0-1.169.938,4.164,4.164,0,0,0-.7,1.506,8.074,8.074,0,0,0-.231,2.019,8,8,0,0,0,.231,2.013,4.1,4.1,0,0,0,.7,1.494,3.113,3.113,0,0,0,1.169.931A3.886,3.886,0,0,0,29.662-1.562ZM38.437,0V-12.663h1.325a.567.567,0,0,1,.6.462l.162,1.3a6.5,6.5,0,0,1,1.569-1.413,3.693,3.693,0,0,1,2.019-.55,3,3,0,0,1,2.081.712,4.008,4.008,0,0,1,1.144,1.925,3.963,3.963,0,0,1,.694-1.187A4.03,4.03,0,0,1,49-12.238a4.1,4.1,0,0,1,1.144-.475,5.108,5.108,0,0,1,1.231-.15,4.683,4.683,0,0,1,1.781.319,3.527,3.527,0,0,1,1.325.931,4.148,4.148,0,0,1,.831,1.506A6.67,6.67,0,0,1,55.6-8.063V0H53.375V-8.063a3.413,3.413,0,0,0-.65-2.256,2.334,2.334,0,0,0-1.888-.769,2.832,2.832,0,0,0-1.044.194,2.515,2.515,0,0,0-.869.569,2.666,2.666,0,0,0-.594.944,3.66,3.66,0,0,0-.219,1.319V0H45.887V-8.063a3.548,3.548,0,0,0-.613-2.275,2.174,2.174,0,0,0-1.787-.75,2.824,2.824,0,0,0-1.531.444,5.013,5.013,0,0,0-1.294,1.206V0ZM63.975-12.863a5.652,5.652,0,0,1,2.1.381,4.714,4.714,0,0,1,1.662,1.1,5.015,5.015,0,0,1,1.094,1.775A6.857,6.857,0,0,1,69.225-7.2a1.451,1.451,0,0,1-.113.7.467.467,0,0,1-.425.175H60.262a6.991,6.991,0,0,0,.325,2.088,4.268,4.268,0,0,0,.825,1.481,3.305,3.305,0,0,0,1.25.888,4.293,4.293,0,0,0,1.625.294,4.767,4.767,0,0,0,1.444-.194,6.869,6.869,0,0,0,1.044-.419,7.963,7.963,0,0,0,.731-.419.969.969,0,0,1,.506-.194.49.49,0,0,1,.425.213l.625.813a4.226,4.226,0,0,1-.988.869A6.149,6.149,0,0,1,66.844-.3a7.82,7.82,0,0,1-1.356.356A8.284,8.284,0,0,1,64.1.175a6.439,6.439,0,0,1-2.419-.444,5.309,5.309,0,0,1-1.913-1.3,5.964,5.964,0,0,1-1.256-2.119,8.616,8.616,0,0,1-.45-2.9,7.378,7.378,0,0,1,.406-2.475,5.834,5.834,0,0,1,1.169-1.994A5.38,5.38,0,0,1,61.5-12.381,6.114,6.114,0,0,1,63.975-12.863Zm.05,1.637a3.416,3.416,0,0,0-2.537.931,4.383,4.383,0,0,0-1.15,2.581h6.888a4.505,4.505,0,0,0-.213-1.419,3.161,3.161,0,0,0-.625-1.113,2.8,2.8,0,0,0-1.006-.725A3.394,3.394,0,0,0,64.025-11.225ZM72.063,0V-12.663h1.275a.7.7,0,0,1,.5.137.843.843,0,0,1,.188.475l.15,1.975a5.792,5.792,0,0,1,1.606-2.069,3.549,3.549,0,0,1,2.244-.744,3.529,3.529,0,0,1,.95.119,3.311,3.311,0,0,1,.787.331l-.287,1.663a.376.376,0,0,1-.388.313,1.945,1.945,0,0,1-.537-.119,3.39,3.39,0,0,0-1.012-.119,2.868,2.868,0,0,0-1.944.675,5.067,5.067,0,0,0-1.306,1.962V0ZM89.387-10.575a.493.493,0,0,1-.462.275.87.87,0,0,1-.425-.137q-.237-.137-.581-.306a5.459,5.459,0,0,0-.819-.312,3.906,3.906,0,0,0-1.125-.144,3.32,3.32,0,0,0-1.012.144,2.431,2.431,0,0,0-.769.394,1.742,1.742,0,0,0-.487.581,1.56,1.56,0,0,0-.169.719,1.2,1.2,0,0,0,.281.813,2.444,2.444,0,0,0,.744.562,6.484,6.484,0,0,0,1.05.419q.587.181,1.206.388t1.206.456a4.377,4.377,0,0,1,1.05.625,2.859,2.859,0,0,1,.744.919A2.812,2.812,0,0,1,90.1-3.875a4.137,4.137,0,0,1-.312,1.619,3.532,3.532,0,0,1-.925,1.288,4.46,4.46,0,0,1-1.5.856A6.163,6.163,0,0,1,85.313.2a6.4,6.4,0,0,1-2.4-.431,6.081,6.081,0,0,1-1.825-1.106l.525-.85a.763.763,0,0,1,.237-.25.667.667,0,0,1,.363-.088.838.838,0,0,1,.475.175q.25.175.606.388a4.665,4.665,0,0,0,.863.388,3.931,3.931,0,0,0,1.269.175,3.478,3.478,0,0,0,1.137-.169,2.389,2.389,0,0,0,.813-.456,1.807,1.807,0,0,0,.481-.662,2.059,2.059,0,0,0,.156-.8,1.327,1.327,0,0,0-.281-.869,2.374,2.374,0,0,0-.744-.587,6.061,6.061,0,0,0-1.056-.425q-.594-.181-1.213-.381t-1.213-.456A4.262,4.262,0,0,1,82.45-6.85a2.916,2.916,0,0,1-.744-.956,3.092,3.092,0,0,1-.281-1.381,3.369,3.369,0,0,1,.3-1.394,3.418,3.418,0,0,1,.875-1.175,4.309,4.309,0,0,1,1.412-.806,5.653,5.653,0,0,1,1.913-.3,6.049,6.049,0,0,1,2.244.394,5.31,5.31,0,0,1,1.719,1.081Z" transform="translate(1038 411)" fill="#fff"/><path d="M-109.075-6.7V0h-2.412V-17.913h5.287a9.922,9.922,0,0,1,2.956.394,5.678,5.678,0,0,1,2.081,1.119,4.509,4.509,0,0,1,1.231,1.75,6.16,6.16,0,0,1,.406,2.288,5.829,5.829,0,0,1-.437,2.287,4.921,4.921,0,0,1-1.281,1.788,5.952,5.952,0,0,1-2.094,1.169A9,9,0,0,1-106.2-6.7Zm0-1.925h2.875a5.586,5.586,0,0,0,1.831-.275,3.755,3.755,0,0,0,1.331-.769,3.193,3.193,0,0,0,.813-1.181,4.037,4.037,0,0,0,.275-1.512,3.436,3.436,0,0,0-1.056-2.675A4.61,4.61,0,0,0-106.2-16h-2.875Zm17.013-4.237a6.5,6.5,0,0,1,2.506.462,5.285,5.285,0,0,1,1.9,1.313,5.81,5.81,0,0,1,1.2,2.056,8.176,8.176,0,0,1,.419,2.694,8.161,8.161,0,0,1-.419,2.7,5.819,5.819,0,0,1-1.2,2.05,5.219,5.219,0,0,1-1.9,1.306,6.582,6.582,0,0,1-2.506.456,6.582,6.582,0,0,1-2.506-.456,5.278,5.278,0,0,1-1.906-1.306,5.844,5.844,0,0,1-1.213-2.05,8.052,8.052,0,0,1-.425-2.7,8.066,8.066,0,0,1,.425-2.694,5.835,5.835,0,0,1,1.213-2.056A5.345,5.345,0,0,1-94.569-12.4,6.5,6.5,0,0,1-92.062-12.863Zm0,11.3a3.251,3.251,0,0,0,2.8-1.256,5.817,5.817,0,0,0,.925-3.506,5.87,5.87,0,0,0-.925-3.525,3.244,3.244,0,0,0-2.8-1.263,3.886,3.886,0,0,0-1.65.325,3.088,3.088,0,0,0-1.169.938,4.164,4.164,0,0,0-.7,1.506,8.074,8.074,0,0,0-.231,2.019,8,8,0,0,0,.231,2.013,4.1,4.1,0,0,0,.7,1.494,3.113,3.113,0,0,0,1.169.931A3.886,3.886,0,0,0-92.062-1.562ZM-79.45.2a3.053,3.053,0,0,1-2.306-.838,3.342,3.342,0,0,1-.806-2.413V-10.8h-1.525a.5.5,0,0,1-.338-.119.461.461,0,0,1-.137-.369v-.887l2.075-.263.512-3.912a.473.473,0,0,1,.163-.306.516.516,0,0,1,.35-.119h1.125v4.362h3.625V-10.8h-3.625v7.6a1.617,1.617,0,0,0,.387,1.187,1.353,1.353,0,0,0,1,.388,1.765,1.765,0,0,0,.606-.094,2.6,2.6,0,0,0,.444-.206q.188-.112.319-.206a.417.417,0,0,1,.231-.094.383.383,0,0,1,.313.212l.65,1.063a4.145,4.145,0,0,1-1.387.844A4.711,4.711,0,0,1-79.45.2Zm10.5-13.063a5.652,5.652,0,0,1,2.1.381,4.714,4.714,0,0,1,1.662,1.1,5.015,5.015,0,0,1,1.094,1.775A6.857,6.857,0,0,1-63.7-7.2a1.451,1.451,0,0,1-.113.7.467.467,0,0,1-.425.175h-8.425a6.991,6.991,0,0,0,.325,2.088,4.268,4.268,0,0,0,.825,1.481,3.306,3.306,0,0,0,1.25.888,4.293,4.293,0,0,0,1.625.294,4.767,4.767,0,0,0,1.444-.194,6.869,6.869,0,0,0,1.044-.419,7.963,7.963,0,0,0,.731-.419.969.969,0,0,1,.506-.194.49.49,0,0,1,.425.213l.625.813a4.226,4.226,0,0,1-.988.869A6.149,6.149,0,0,1-66.081-.3a7.82,7.82,0,0,1-1.356.356,8.284,8.284,0,0,1-1.387.119,6.439,6.439,0,0,1-2.419-.444,5.309,5.309,0,0,1-1.912-1.3,5.964,5.964,0,0,1-1.256-2.119,8.616,8.616,0,0,1-.45-2.9,7.378,7.378,0,0,1,.406-2.475,5.834,5.834,0,0,1,1.169-1.994,5.38,5.38,0,0,1,1.863-1.325A6.114,6.114,0,0,1-68.95-12.863Zm.05,1.637a3.416,3.416,0,0,0-2.537.931,4.383,4.383,0,0,0-1.15,2.581H-65.7a4.505,4.505,0,0,0-.213-1.419,3.161,3.161,0,0,0-.625-1.113,2.8,2.8,0,0,0-1.006-.725A3.394,3.394,0,0,0-68.9-11.225ZM-60.862,0V-12.663h1.325a.567.567,0,0,1,.6.462l.175,1.375A7.117,7.117,0,0,1-56.919-12.3a4.8,4.8,0,0,1,2.356-.562,4.572,4.572,0,0,1,1.831.344,3.543,3.543,0,0,1,1.325.975,4.306,4.306,0,0,1,.806,1.519,6.609,6.609,0,0,1,.275,1.962V0H-52.55V-8.063a3.408,3.408,0,0,0-.656-2.231,2.453,2.453,0,0,0-2.006-.794,3.74,3.74,0,0,0-1.844.475,6.072,6.072,0,0,0-1.581,1.287V0Zm17.737.2a3.053,3.053,0,0,1-2.306-.838,3.342,3.342,0,0,1-.806-2.413V-10.8h-1.525a.5.5,0,0,1-.338-.119.461.461,0,0,1-.138-.369v-.887l2.075-.263.513-3.912a.473.473,0,0,1,.162-.306.516.516,0,0,1,.35-.119h1.125v4.362h3.625V-10.8h-3.625v7.6a1.617,1.617,0,0,0,.387,1.187,1.353,1.353,0,0,0,1,.388,1.765,1.765,0,0,0,.606-.094,2.6,2.6,0,0,0,.444-.206q.188-.112.319-.206a.417.417,0,0,1,.231-.094.383.383,0,0,1,.313.212l.65,1.063a4.145,4.145,0,0,1-1.387.844A4.712,4.712,0,0,1-43.125.2Zm7.962-12.863V0h-2.225V-12.663Zm.5-3.975a1.416,1.416,0,0,1-.131.606,1.746,1.746,0,0,1-.35.5,1.626,1.626,0,0,1-.506.344,1.519,1.519,0,0,1-.612.125,1.476,1.476,0,0,1-.606-.125,1.648,1.648,0,0,1-.5-.344,1.648,1.648,0,0,1-.344-.5,1.476,1.476,0,0,1-.125-.606,1.564,1.564,0,0,1,.125-.619,1.606,1.606,0,0,1,.344-.513,1.648,1.648,0,0,1,.5-.344,1.476,1.476,0,0,1,.606-.125,1.519,1.519,0,0,1,.612.125,1.626,1.626,0,0,1,.506.344,1.7,1.7,0,0,1,.35.513A1.5,1.5,0,0,1-34.662-16.638ZM-21.937,0h-.987a1.179,1.179,0,0,1-.525-.1.553.553,0,0,1-.263-.425l-.25-1.175q-.5.45-.975.806a5.58,5.58,0,0,1-1,.6,5.182,5.182,0,0,1-1.119.369A6.416,6.416,0,0,1-28.375.2a4.488,4.488,0,0,1-1.381-.207,3.145,3.145,0,0,1-1.119-.621,2.956,2.956,0,0,1-.756-1.047,3.671,3.671,0,0,1-.281-1.5A2.8,2.8,0,0,1-31.5-4.623a3.63,3.63,0,0,1,1.331-1.236,8.654,8.654,0,0,1,2.406-.884,16.375,16.375,0,0,1,3.638-.345v-.994a3.445,3.445,0,0,0-.631-2.245,2.288,2.288,0,0,0-1.869-.761,3.962,3.962,0,0,0-1.369.206,5.181,5.181,0,0,0-.962.462q-.406.256-.7.463a1.01,1.01,0,0,1-.581.206.667.667,0,0,1-.394-.119.9.9,0,0,1-.269-.294l-.4-.713a7.231,7.231,0,0,1,2.263-1.512,6.986,6.986,0,0,1,2.687-.5,4.8,4.8,0,0,1,1.888.35,3.871,3.871,0,0,1,1.387.975,4.129,4.129,0,0,1,.85,1.513,6.3,6.3,0,0,1,.287,1.95Zm-5.775-1.363a4.542,4.542,0,0,0,1.075-.119,4.243,4.243,0,0,0,.919-.337,4.869,4.869,0,0,0,.825-.531,7.148,7.148,0,0,0,.769-.712V-5.675a14.919,14.919,0,0,0-2.612.195,7.3,7.3,0,0,0-1.75.509,2.439,2.439,0,0,0-.981.742,1.6,1.6,0,0,0-.306.955,2.119,2.119,0,0,0,.163.868,1.644,1.644,0,0,0,.438.6,1.723,1.723,0,0,0,.65.339A2.955,2.955,0,0,0-27.712-1.363Zm11.625-17.05V0h-2.225V-18.413ZM5.638-3.7A.5.5,0,0,1,6-3.538L6.95-2.5A7.663,7.663,0,0,1,4.281-.512,9.1,9.1,0,0,1,.5.2,8.9,8.9,0,0,1-3.012-.469,7.7,7.7,0,0,1-5.7-2.344,8.476,8.476,0,0,1-7.425-5.238,10.81,10.81,0,0,1-8.037-8.95a10.16,10.16,0,0,1,.656-3.713,8.483,8.483,0,0,1,1.844-2.9,8.251,8.251,0,0,1,2.844-1.881,9.68,9.68,0,0,1,3.656-.669,8.622,8.622,0,0,1,3.406.612,8.608,8.608,0,0,1,2.544,1.663l-.788,1.112a.858.858,0,0,1-.2.206.55.55,0,0,1-.325.081.633.633,0,0,1-.344-.119q-.181-.119-.431-.294t-.588-.375a5.148,5.148,0,0,0-.8-.375,6.61,6.61,0,0,0-1.075-.294A7.483,7.483,0,0,0,.95-16.013a6.82,6.82,0,0,0-2.631.494,5.892,5.892,0,0,0-2.056,1.406,6.4,6.4,0,0,0-1.344,2.225A8.485,8.485,0,0,0-5.562-8.95a8.642,8.642,0,0,0,.481,2.987A6.6,6.6,0,0,0-3.769-3.744,5.534,5.534,0,0,0-1.8-2.363a6.294,6.294,0,0,0,2.45.475,9.949,9.949,0,0,0,1.438-.094,5.9,5.9,0,0,0,1.181-.294,5,5,0,0,0,1.012-.506,7.918,7.918,0,0,0,.944-.731A.635.635,0,0,1,5.638-3.7ZM9.788,0V-18.413h2.225v7.45a6.833,6.833,0,0,1,1.8-1.381,4.82,4.82,0,0,1,2.275-.519,4.572,4.572,0,0,1,1.831.344,3.543,3.543,0,0,1,1.325.975,4.306,4.306,0,0,1,.806,1.519,6.609,6.609,0,0,1,.275,1.962V0H18.1V-8.063a3.408,3.408,0,0,0-.656-2.231,2.453,2.453,0,0,0-2.006-.794,3.74,3.74,0,0,0-1.844.475,6.072,6.072,0,0,0-1.581,1.287V0Zm23.2,0H32a1.179,1.179,0,0,1-.525-.1.553.553,0,0,1-.263-.425L30.963-1.7q-.5.45-.975.806a5.58,5.58,0,0,1-1,.6,5.182,5.182,0,0,1-1.119.369A6.416,6.416,0,0,1,26.55.2a4.488,4.488,0,0,1-1.381-.207A3.145,3.145,0,0,1,24.05-.628a2.956,2.956,0,0,1-.756-1.047,3.671,3.671,0,0,1-.281-1.5,2.8,2.8,0,0,1,.413-1.449,3.63,3.63,0,0,1,1.331-1.236,8.654,8.654,0,0,1,2.406-.884A16.375,16.375,0,0,1,30.8-7.088v-.994a3.445,3.445,0,0,0-.631-2.245,2.288,2.288,0,0,0-1.869-.761,3.962,3.962,0,0,0-1.369.206,5.181,5.181,0,0,0-.962.462q-.406.256-.7.463a1.01,1.01,0,0,1-.581.206.667.667,0,0,1-.394-.119.9.9,0,0,1-.269-.294l-.4-.713a7.231,7.231,0,0,1,2.263-1.512,6.986,6.986,0,0,1,2.687-.5,4.8,4.8,0,0,1,1.888.35,3.871,3.871,0,0,1,1.387.975,4.129,4.129,0,0,1,.85,1.513,6.3,6.3,0,0,1,.287,1.95ZM27.213-1.363a4.542,4.542,0,0,0,1.075-.119,4.243,4.243,0,0,0,.919-.337,4.869,4.869,0,0,0,.825-.531,7.148,7.148,0,0,0,.769-.712V-5.675a14.919,14.919,0,0,0-2.612.195,7.3,7.3,0,0,0-1.75.509,2.439,2.439,0,0,0-.981.742,1.6,1.6,0,0,0-.306.955,2.119,2.119,0,0,0,.163.868,1.644,1.644,0,0,0,.438.6,1.723,1.723,0,0,0,.65.339A2.955,2.955,0,0,0,27.213-1.363ZM36.363,0V-12.663h1.325a.567.567,0,0,1,.6.462l.162,1.3a6.5,6.5,0,0,1,1.569-1.413,3.693,3.693,0,0,1,2.019-.55,3,3,0,0,1,2.081.712,4.008,4.008,0,0,1,1.144,1.925,3.963,3.963,0,0,1,.694-1.187,4.03,4.03,0,0,1,.969-.825,4.1,4.1,0,0,1,1.144-.475,5.108,5.108,0,0,1,1.231-.15,4.683,4.683,0,0,1,1.781.319,3.527,3.527,0,0,1,1.325.931,4.148,4.148,0,0,1,.831,1.506,6.67,6.67,0,0,1,.288,2.044V0H51.3V-8.063a3.413,3.413,0,0,0-.65-2.256,2.334,2.334,0,0,0-1.888-.769,2.832,2.832,0,0,0-1.044.194,2.515,2.515,0,0,0-.869.569,2.666,2.666,0,0,0-.594.944,3.66,3.66,0,0,0-.219,1.319V0H43.813V-8.063a3.548,3.548,0,0,0-.613-2.275,2.174,2.174,0,0,0-1.787-.75,2.824,2.824,0,0,0-1.531.444,5.013,5.013,0,0,0-1.294,1.206V0ZM56.888,4.288v-16.95h1.325a.567.567,0,0,1,.6.462L59-10.7a6.76,6.76,0,0,1,1.856-1.587,4.742,4.742,0,0,1,2.406-.6,4.571,4.571,0,0,1,1.975.419,4.072,4.072,0,0,1,1.512,1.238A5.935,5.935,0,0,1,67.713-9.2a10.425,10.425,0,0,1,.338,2.788,8.737,8.737,0,0,1-.375,2.606A6.347,6.347,0,0,1,66.6-1.719,5.02,5.02,0,0,1,64.881-.331a5.084,5.084,0,0,1-2.294.506,4.721,4.721,0,0,1-2.006-.388,4.521,4.521,0,0,1-1.469-1.1v5.6Zm5.638-15.375a3.584,3.584,0,0,0-1.906.5,5.5,5.5,0,0,0-1.506,1.413V-3.05a3.578,3.578,0,0,0,1.344,1.163,3.847,3.847,0,0,0,1.631.337A3.192,3.192,0,0,0,64.8-2.812a5.9,5.9,0,0,0,.95-3.6,8.983,8.983,0,0,0-.219-2.125A4.155,4.155,0,0,0,64.9-9.994a2.456,2.456,0,0,0-1.013-.831A3.368,3.368,0,0,0,62.525-11.088Zm10.638-1.575V0H70.938V-12.663Zm.5-3.975a1.416,1.416,0,0,1-.131.606,1.746,1.746,0,0,1-.35.5,1.626,1.626,0,0,1-.506.344,1.519,1.519,0,0,1-.613.125,1.476,1.476,0,0,1-.606-.125,1.648,1.648,0,0,1-.5-.344,1.648,1.648,0,0,1-.344-.5,1.476,1.476,0,0,1-.125-.606,1.564,1.564,0,0,1,.125-.619,1.606,1.606,0,0,1,.344-.513,1.648,1.648,0,0,1,.5-.344,1.476,1.476,0,0,1,.606-.125,1.519,1.519,0,0,1,.613.125,1.626,1.626,0,0,1,.506.344,1.7,1.7,0,0,1,.35.513A1.5,1.5,0,0,1,73.663-16.638Zm8.55,3.775a6.5,6.5,0,0,1,2.506.462,5.285,5.285,0,0,1,1.9,1.313,5.81,5.81,0,0,1,1.2,2.056,8.176,8.176,0,0,1,.419,2.694,8.161,8.161,0,0,1-.419,2.7,5.819,5.819,0,0,1-1.2,2.05,5.219,5.219,0,0,1-1.9,1.306,6.582,6.582,0,0,1-2.506.456,6.582,6.582,0,0,1-2.506-.456A5.278,5.278,0,0,1,77.8-1.588a5.844,5.844,0,0,1-1.213-2.05,8.052,8.052,0,0,1-.425-2.7,8.066,8.066,0,0,1,.425-2.694A5.835,5.835,0,0,1,77.8-11.088,5.345,5.345,0,0,1,79.706-12.4,6.5,6.5,0,0,1,82.212-12.863Zm0,11.3a3.251,3.251,0,0,0,2.8-1.256,5.817,5.817,0,0,0,.925-3.506,5.87,5.87,0,0,0-.925-3.525,3.244,3.244,0,0,0-2.8-1.263,3.886,3.886,0,0,0-1.65.325,3.088,3.088,0,0,0-1.169.938,4.164,4.164,0,0,0-.7,1.506,8.074,8.074,0,0,0-.231,2.019,8,8,0,0,0,.231,2.013,4.1,4.1,0,0,0,.7,1.494,3.113,3.113,0,0,0,1.169.931A3.886,3.886,0,0,0,82.212-1.562ZM90.987,0V-12.663h1.325a.567.567,0,0,1,.6.462l.175,1.375A7.117,7.117,0,0,1,94.931-12.3a4.8,4.8,0,0,1,2.356-.562,4.572,4.572,0,0,1,1.831.344,3.543,3.543,0,0,1,1.325.975,4.306,4.306,0,0,1,.806,1.519,6.609,6.609,0,0,1,.275,1.962V0H99.3V-8.063a3.408,3.408,0,0,0-.656-2.231,2.453,2.453,0,0,0-2.006-.794,3.74,3.74,0,0,0-1.844.475,6.072,6.072,0,0,0-1.581,1.287V0Zm21.15-10.575a.493.493,0,0,1-.462.275.87.87,0,0,1-.425-.137q-.237-.137-.581-.306a5.459,5.459,0,0,0-.819-.312,3.906,3.906,0,0,0-1.125-.144,3.32,3.32,0,0,0-1.012.144,2.431,2.431,0,0,0-.769.394,1.742,1.742,0,0,0-.487.581,1.56,1.56,0,0,0-.169.719,1.2,1.2,0,0,0,.281.813,2.444,2.444,0,0,0,.744.562,6.484,6.484,0,0,0,1.05.419q.587.181,1.206.388t1.206.456a4.377,4.377,0,0,1,1.05.625,2.859,2.859,0,0,1,.744.919,2.812,2.812,0,0,1,.281,1.306,4.137,4.137,0,0,1-.312,1.619,3.532,3.532,0,0,1-.925,1.288,4.46,4.46,0,0,1-1.5.856,6.163,6.163,0,0,1-2.05.313,6.4,6.4,0,0,1-2.4-.431,6.081,6.081,0,0,1-1.825-1.106l.525-.85a.763.763,0,0,1,.237-.25.667.667,0,0,1,.363-.088.838.838,0,0,1,.475.175q.25.175.606.388a4.665,4.665,0,0,0,.863.388,3.931,3.931,0,0,0,1.269.175,3.478,3.478,0,0,0,1.137-.169,2.389,2.389,0,0,0,.813-.456,1.807,1.807,0,0,0,.481-.662,2.059,2.059,0,0,0,.156-.8,1.327,1.327,0,0,0-.281-.869,2.374,2.374,0,0,0-.744-.587,6.061,6.061,0,0,0-1.056-.425q-.594-.181-1.213-.381t-1.213-.456A4.262,4.262,0,0,1,105.2-6.85a2.916,2.916,0,0,1-.744-.956,3.092,3.092,0,0,1-.281-1.381,3.369,3.369,0,0,1,.3-1.394,3.418,3.418,0,0,1,.875-1.175,4.309,4.309,0,0,1,1.412-.806,5.653,5.653,0,0,1,1.913-.3,6.049,6.049,0,0,1,2.244.394,5.31,5.31,0,0,1,1.719,1.081Z" transform="translate(1242 724)" fill="#fff"/></g></svg>